<svg width="154" height="48" viewBox="0 0 154 48" fill="none" xmlns="http://www.w3.org/2000/svg">
<g filter="url(#filter0_d)">
<path d="M5.695 32H1.87C1.24 32 0.925 31.685 0.925 31.055V4.01C0.925 3.38 1.24 3.065 1.87 3.065H5.695C6.325 3.065 6.64 3.38 6.64 4.01V14.585C6.64 14.915 6.82 15.08 7.18 15.08H14.785C15.115 15.08 15.28 14.915 15.28 14.585V4.01C15.28 3.38 15.595 3.065 16.225 3.065H20.05C20.68 3.065 20.995 3.38 20.995 4.01V31.055C20.995 31.685 20.68 32 20.05 32H16.225C15.595 32 15.28 31.685 15.28 31.055V20.525C15.28 20.195 15.115 20.03 14.785 20.03H7.18C6.82 20.03 6.64 20.195 6.64 20.525V31.055C6.64 31.685 6.325 32 5.695 32Z" fill="#7868E6"/>
<path d="M37.0227 32H33.1527C31.2027 32 29.6577 31.43 28.5177 30.29C27.4077 29.15 26.8527 27.59 26.8527 25.61V15.44C26.8527 13.46 27.4077 11.9 28.5177 10.76C29.6577 9.62 31.2027 9.05 33.1527 9.05H37.0227C38.9727 9.05 40.5177 9.62 41.6577 10.76C42.7977 11.9 43.3677 13.46 43.3677 15.44V25.61C43.3677 27.59 42.7977 29.15 41.6577 30.29C40.5177 31.43 38.9727 32 37.0227 32ZM33.3327 29.975H36.8427C38.2227 29.975 39.2727 29.6 39.9927 28.85C40.7427 28.07 41.1177 26.975 41.1177 25.565V15.485C41.1177 14.075 40.7427 12.995 39.9927 12.245C39.2727 11.465 38.2227 11.075 36.8427 11.075H33.3327C31.9527 11.075 30.9027 11.465 30.1827 12.245C29.4627 12.995 29.1027 14.075 29.1027 15.485V25.565C29.1027 26.975 29.4627 28.07 30.1827 28.85C30.9027 29.6 31.9527 29.975 33.3327 29.975ZM50.617 11.075H47.872C47.542 11.075 47.377 10.925 47.377 10.625V9.545C47.377 9.215 47.542 9.05 47.872 9.05H50.617C50.887 9.05 51.022 8.915 51.022 8.645V5C51.022 4.64 51.187 4.46 51.517 4.46H52.822C53.152 4.46 53.317 4.64 53.317 5V8.645C53.317 8.915 53.452 9.05 53.722 9.05H59.077C59.407 9.05 59.572 9.215 59.572 9.545V10.625C59.572 10.925 59.407 11.075 59.077 11.075H53.722C53.452 11.075 53.317 11.21 53.317 11.48V25.655C53.317 27.035 53.707 28.1 54.487 28.85C55.267 29.6 56.362 29.975 57.772 29.975H59.527C59.857 29.975 60.022 30.14 60.022 30.47V31.505C60.022 31.835 59.857 32 59.527 32H57.592C55.612 32 54.022 31.445 52.822 30.335C51.622 29.225 51.022 27.695 51.022 25.745V11.48C51.022 11.21 50.887 11.075 50.617 11.075ZM80.4825 32H71.0775C69.1275 32 67.5825 31.43 66.4425 30.29C65.3325 29.15 64.7775 27.59 64.7775 25.61V15.44C64.7775 13.46 65.3325 11.9 66.4425 10.76C67.5825 9.62 69.1275 9.05 71.0775 9.05H74.9475C76.8975 9.05 78.4425 9.62 79.5825 10.76C80.7225 11.9 81.2925 13.46 81.2925 15.44V21.155C81.2925 21.515 81.1125 21.695 80.7525 21.695H67.4325C67.1625 21.695 67.0275 21.83 67.0275 22.1V25.565C67.0275 26.975 67.3875 28.07 68.1075 28.85C68.8275 29.6 69.8775 29.975 71.2575 29.975H80.4825C80.8125 29.975 80.9775 30.14 80.9775 30.47V31.505C80.9775 31.835 80.8125 32 80.4825 32ZM67.4325 19.895H78.6375C78.9075 19.895 79.0425 19.76 79.0425 19.49V15.485C79.0425 14.075 78.6825 12.995 77.9625 12.245C77.2425 11.465 76.1925 11.075 74.8125 11.075H71.2575C69.8775 11.075 68.8275 11.465 68.1075 12.245C67.3875 12.995 67.0275 14.075 67.0275 15.485V19.49C67.0275 19.76 67.1625 19.895 67.4325 19.895ZM89.356 32H88.051C87.751 32 87.601 31.82 87.601 31.46V0.904998C87.601 0.544999 87.751 0.365 88.051 0.365H89.356C89.686 0.365 89.851 0.544999 89.851 0.904998V31.46C89.851 31.82 89.686 32 89.356 32ZM97.0492 5.27V0.949997C97.0492 0.619998 97.1992 0.454998 97.4992 0.454998H98.8492C99.1492 0.454998 99.2992 0.619998 99.2992 0.949997V5.27C99.2992 5.63 99.1492 5.81 98.8492 5.81H97.4992C97.1992 5.81 97.0492 5.63 97.0492 5.27ZM97.0492 31.46V9.59C97.0492 9.23 97.1992 9.05 97.4992 9.05H98.8042C99.1342 9.05 99.2992 9.23 99.2992 9.59V31.46C99.2992 31.82 99.1492 32 98.8492 32H97.4992C97.1992 32 97.0492 31.82 97.0492 31.46ZM121.527 32H112.122C110.172 32 108.627 31.43 107.487 30.29C106.377 29.15 105.822 27.59 105.822 25.61V15.44C105.822 13.46 106.377 11.9 107.487 10.76C108.627 9.62 110.172 9.05 112.122 9.05H115.992C117.942 9.05 119.487 9.62 120.627 10.76C121.767 11.9 122.337 13.46 122.337 15.44V21.155C122.337 21.515 122.157 21.695 121.797 21.695H108.477C108.207 21.695 108.072 21.83 108.072 22.1V25.565C108.072 26.975 108.432 28.07 109.152 28.85C109.872 29.6 110.922 29.975 112.302 29.975H121.527C121.857 29.975 122.022 30.14 122.022 30.47V31.505C122.022 31.835 121.857 32 121.527 32ZM108.477 19.895H119.682C119.952 19.895 120.087 19.76 120.087 19.49V15.485C120.087 14.075 119.727 12.995 119.007 12.245C118.287 11.465 117.237 11.075 115.857 11.075H112.302C110.922 11.075 109.872 11.465 109.152 12.245C108.432 12.995 108.072 14.075 108.072 15.485V19.49C108.072 19.76 108.207 19.895 108.477 19.895ZM130.176 32H128.871C128.571 32 128.421 31.82 128.421 31.46V9.59C128.421 9.23 128.571 9.05 128.871 9.05H130.176C130.506 9.05 130.671 9.23 130.671 9.59V11.48H130.851C131.181 10.85 131.766 10.295 132.606 9.815C133.446 9.305 134.481 9.05 135.711 9.05H137.466C137.796 9.05 137.961 9.215 137.961 9.545V10.625C137.961 10.955 137.796 11.105 137.466 11.075H135.351C133.881 11.075 132.726 11.525 131.886 12.425C131.076 13.325 130.671 14.54 130.671 16.07V31.46C130.671 31.82 130.506 32 130.176 32Z" fill="black"/>
</g>
<defs>
<filter id="filter0_d" x="0.924988" y="0.36499" width="153.036" height="47.635" filterUnits="userSpaceOnUse" color-interpolation-filters="sRGB">
<feFlood flood-opacity="0" result="BackgroundImageFix"/>
<feColorMatrix in="SourceAlpha" type="matrix" values="0 0 0 0 0 0 0 0 0 0 0 0 0 0 0 0 0 0 127 0"/>
<feOffset dx="10" dy="10"/>
<feGaussianBlur stdDeviation="3"/>
<feColorMatrix type="matrix" values="0 0 0 0 0 0 0 0 0 0 0 0 0 0 0 0 0 0 0.25 0"/>
<feBlend mode="normal" in2="BackgroundImageFix" result="effect1_dropShadow"/>
<feBlend mode="normal" in="SourceGraphic" in2="effect1_dropShadow" result="shape"/>
</filter>
</defs>
</svg>
