<svg width="334" height="114" viewBox="0 0 334 114" fill="none" xmlns="http://www.w3.org/2000/svg">
<path d="M132.305 14H130.205C129.985 14 129.86 13.895 129.83 13.685L128.225 4.67C128.195 4.46 128.3 4.355 128.54 4.355H130.1C130.33 4.355 130.45 4.46 130.46 4.67L131.33 12.065H131.435L132.875 4.625C132.905 4.445 133.01 4.355 133.19 4.355H134.87C135.06 4.355 135.17 4.44 135.2 4.61L136.67 12.065H136.79L137.645 4.685C137.655 4.465 137.775 4.355 138.005 4.355H139.565C139.805 4.355 139.91 4.465 139.88 4.685L138.26 13.685C138.23 13.895 138.115 14 137.915 14H135.8C135.59 14 135.47 13.895 135.44 13.685L134.09 6.65H134.03L132.665 13.685C132.625 13.895 132.505 14 132.305 14ZM146.565 14H143.25C142.46 14 141.85 13.79 141.42 13.37C140.99 12.95 140.775 12.345 140.775 11.555V8.795C140.775 8.005 140.99 7.4 141.42 6.98C141.85 6.56 142.46 6.35 143.25 6.35H144.435C145.225 6.35 145.835 6.56 146.265 6.98C146.695 7.4 146.91 8.005 146.91 8.795V10.7C146.91 10.91 146.805 11.015 146.595 11.015H142.83C142.71 11.015 142.65 11.07 142.65 11.18V11.51C142.65 11.82 142.715 12.045 142.845 12.185C142.985 12.315 143.215 12.38 143.535 12.38H146.565C146.775 12.38 146.88 12.49 146.88 12.71V13.7C146.88 13.81 146.855 13.89 146.805 13.94C146.765 13.98 146.685 14 146.565 14ZM142.83 9.74H144.87C144.98 9.74 145.035 9.685 145.035 9.575V8.855C145.035 8.535 144.97 8.31 144.84 8.18C144.71 8.05 144.485 7.985 144.165 7.985H143.535C143.215 7.985 142.99 8.05 142.86 8.18C142.73 8.31 142.665 8.535 142.665 8.855V9.575C142.665 9.685 142.72 9.74 142.83 9.74ZM153.223 14H151.948C151.738 14 151.633 13.895 151.633 13.685V3.77C151.633 3.56 151.738 3.455 151.948 3.455H153.223C153.433 3.455 153.538 3.56 153.538 3.77V7.16H153.598C153.818 6.62 154.308 6.35 155.068 6.35H155.548C157.118 6.35 157.903 7.165 157.903 8.795V13.685C157.903 13.895 157.793 14 157.573 14H156.313C156.103 14 155.998 13.895 155.998 13.685V8.885C155.998 8.565 155.928 8.34 155.788 8.21C155.658 8.07 155.433 8 155.113 8H154.573C153.883 8 153.538 8.38 153.538 9.14V13.685C153.538 13.895 153.433 14 153.223 14ZM165.124 14H161.809C161.019 14 160.409 13.79 159.979 13.37C159.549 12.95 159.334 12.345 159.334 11.555V8.795C159.334 8.005 159.549 7.4 159.979 6.98C160.409 6.56 161.019 6.35 161.809 6.35H162.994C163.784 6.35 164.394 6.56 164.824 6.98C165.254 7.4 165.469 8.005 165.469 8.795V10.7C165.469 10.91 165.364 11.015 165.154 11.015H161.389C161.269 11.015 161.209 11.07 161.209 11.18V11.51C161.209 11.82 161.274 12.045 161.404 12.185C161.544 12.315 161.774 12.38 162.094 12.38H165.124C165.334 12.38 165.439 12.49 165.439 12.71V13.7C165.439 13.81 165.414 13.89 165.364 13.94C165.324 13.98 165.244 14 165.124 14ZM161.389 9.74H163.429C163.539 9.74 163.594 9.685 163.594 9.575V8.855C163.594 8.535 163.529 8.31 163.399 8.18C163.269 8.05 163.044 7.985 162.724 7.985H162.094C161.774 7.985 161.549 8.05 161.419 8.18C161.289 8.31 161.224 8.535 161.224 8.855V9.575C161.224 9.685 161.279 9.74 161.389 9.74ZM168.561 14H167.286C167.076 14 166.971 13.895 166.971 13.685V3.77C166.971 3.56 167.076 3.455 167.286 3.455H168.561C168.771 3.455 168.876 3.56 168.876 3.77V13.685C168.876 13.895 168.771 14 168.561 14ZM172.192 16.04H170.917C170.707 16.04 170.602 15.94 170.602 15.74V6.665C170.602 6.455 170.707 6.35 170.917 6.35H172.192C172.402 6.35 172.507 6.455 172.507 6.665V7.16H172.567C172.677 6.89 172.872 6.69 173.152 6.56C173.432 6.42 173.727 6.35 174.037 6.35H174.652C175.422 6.35 176.002 6.56 176.392 6.98C176.792 7.4 176.992 8.005 176.992 8.795V11.555C176.992 12.345 176.792 12.95 176.392 13.37C176.002 13.79 175.422 14 174.652 14H174.037C173.727 14 173.432 13.935 173.152 13.805C172.872 13.665 172.677 13.46 172.567 13.19H172.507V15.74C172.507 15.94 172.402 16.04 172.192 16.04ZM173.542 12.35H174.202C174.522 12.35 174.747 12.285 174.877 12.155C175.017 12.015 175.087 11.785 175.087 11.465V8.885C175.087 8.565 175.017 8.34 174.877 8.21C174.747 8.07 174.522 8 174.202 8H173.542C172.852 8 172.507 8.38 172.507 9.14V11.21C172.507 11.97 172.852 12.35 173.542 12.35ZM183.039 16.535H182.079C181.879 16.535 181.779 16.425 181.779 16.205V15.2C181.779 14.98 181.879 14.87 182.079 14.87H182.394C183.024 14.87 183.449 14.78 183.669 14.6C183.899 14.43 184.074 14.095 184.194 13.595H183.399C183.209 13.595 183.084 13.49 183.024 13.28L181.269 6.665C181.209 6.455 181.284 6.35 181.494 6.35H182.829C183.029 6.35 183.154 6.455 183.204 6.665L184.494 12.2H184.554L185.829 6.665C185.869 6.455 185.994 6.35 186.204 6.35H187.464C187.714 6.35 187.814 6.46 187.764 6.68L185.934 14C185.714 14.83 185.374 15.46 184.914 15.89C184.454 16.32 183.829 16.535 183.039 16.535ZM192.514 14H191.179C190.389 14 189.779 13.79 189.349 13.37C188.919 12.95 188.704 12.345 188.704 11.555V8.795C188.704 8.005 188.919 7.4 189.349 6.98C189.779 6.56 190.389 6.35 191.179 6.35H192.514C193.294 6.35 193.899 6.565 194.329 6.995C194.769 7.415 194.989 8.015 194.989 8.795V11.555C194.989 12.335 194.769 12.94 194.329 13.37C193.899 13.79 193.294 14 192.514 14ZM191.464 12.365H192.229C192.549 12.365 192.774 12.3 192.904 12.17C193.044 12.04 193.114 11.815 193.114 11.495V8.855C193.114 8.535 193.044 8.31 192.904 8.18C192.774 8.05 192.549 7.985 192.229 7.985H191.464C191.144 7.985 190.919 8.05 190.789 8.18C190.659 8.31 190.594 8.535 190.594 8.855V11.495C190.594 11.815 190.659 12.04 190.789 12.17C190.919 12.3 191.144 12.365 191.464 12.365ZM199.246 14H198.751C197.981 14 197.396 13.79 196.996 13.37C196.606 12.95 196.411 12.345 196.411 11.555V6.665C196.411 6.455 196.516 6.35 196.726 6.35H198.001C198.211 6.35 198.316 6.455 198.316 6.665V11.465C198.316 11.785 198.381 12.015 198.511 12.155C198.651 12.285 198.876 12.35 199.186 12.35H199.741C200.431 12.35 200.776 11.97 200.776 11.21V6.665C200.776 6.455 200.881 6.35 201.091 6.35H202.351C202.571 6.35 202.681 6.455 202.681 6.665V13.685C202.681 13.895 202.571 14 202.351 14H201.091C200.881 14 200.776 13.895 200.776 13.685V13.19H200.716C200.606 13.46 200.411 13.665 200.131 13.805C199.851 13.935 199.556 14 199.246 14Z" fill="#4E4B63"/>
<path d="M4.935 90H3.3C2.51 90 1.9 89.79 1.47 89.37C1.04 88.95 0.825 88.345 0.825 87.555V82.8C0.825 82.01 1.04 81.405 1.47 80.985C1.9 80.565 2.51 80.355 3.3 80.355H4.935C5.715 80.355 6.32 80.57 6.75 81C7.19 81.42 7.41 82.02 7.41 82.8V83.505C7.41 83.725 7.3 83.835 7.08 83.835H5.82C5.61 83.835 5.505 83.725 5.505 83.505V82.89C5.505 82.57 5.435 82.345 5.295 82.215C5.165 82.075 4.94 82.005 4.62 82.005H3.6C3.29 82.005 3.065 82.075 2.925 82.215C2.795 82.345 2.73 82.57 2.73 82.89V87.465C2.73 87.785 2.795 88.015 2.925 88.155C3.065 88.285 3.29 88.35 3.6 88.35H4.62C4.94 88.35 5.165 88.285 5.295 88.155C5.435 88.015 5.505 87.785 5.505 87.465V86.85C5.505 86.63 5.61 86.52 5.82 86.52H7.08C7.3 86.52 7.41 86.63 7.41 86.85V87.555C7.41 88.335 7.19 88.94 6.75 89.37C6.32 89.79 5.715 90 4.935 90ZM10.4863 90H9.21129C9.00129 90 8.89629 89.895 8.89629 89.685V82.665C8.89629 82.455 9.00129 82.35 9.21129 82.35H10.4863C10.6963 82.35 10.8013 82.455 10.8013 82.665V83.175H10.8613C10.9713 82.905 11.1663 82.7 11.4463 82.56C11.7263 82.42 12.0213 82.35 12.3313 82.35H12.8713C13.0713 82.35 13.1713 82.455 13.1713 82.665V83.7C13.1713 83.82 13.1463 83.905 13.0963 83.955C13.0563 83.995 12.9813 84.01 12.8713 84H11.8363C11.1463 84 10.8013 84.39 10.8013 85.17V89.685C10.8013 89.895 10.6963 90 10.4863 90ZM19.7658 90H16.4508C15.6608 90 15.0508 89.79 14.6208 89.37C14.1908 88.95 13.9758 88.345 13.9758 87.555V84.795C13.9758 84.005 14.1908 83.4 14.6208 82.98C15.0508 82.56 15.6608 82.35 16.4508 82.35H17.6358C18.4258 82.35 19.0358 82.56 19.4658 82.98C19.8958 83.4 20.1108 84.005 20.1108 84.795V86.7C20.1108 86.91 20.0058 87.015 19.7958 87.015H16.0308C15.9108 87.015 15.8508 87.07 15.8508 87.18V87.51C15.8508 87.82 15.9158 88.045 16.0458 88.185C16.1858 88.315 16.4158 88.38 16.7358 88.38H19.7658C19.9758 88.38 20.0808 88.49 20.0808 88.71V89.7C20.0808 89.81 20.0558 89.89 20.0058 89.94C19.9658 89.98 19.8858 90 19.7658 90ZM16.0308 85.74H18.0708C18.1808 85.74 18.2358 85.685 18.2358 85.575V84.855C18.2358 84.535 18.1708 84.31 18.0408 84.18C17.9108 84.05 17.6858 83.985 17.3658 83.985H16.7358C16.4158 83.985 16.1908 84.05 16.0608 84.18C15.9308 84.31 15.8658 84.535 15.8658 84.855V85.575C15.8658 85.685 15.9208 85.74 16.0308 85.74ZM24.2229 90H23.8629C23.0729 90 22.4629 89.79 22.0329 89.37C21.6029 88.95 21.3879 88.345 21.3879 87.555V84.795C21.3879 84.005 21.6029 83.4 22.0329 82.98C22.4629 82.56 23.0729 82.35 23.8629 82.35H27.3279C27.5479 82.35 27.6579 82.455 27.6579 82.665V89.685C27.6579 89.895 27.5479 90 27.3279 90H26.0679C25.8579 90 25.7529 89.895 25.7529 89.685V89.19H25.6929C25.5829 89.46 25.3879 89.665 25.1079 89.805C24.8279 89.935 24.5329 90 24.2229 90ZM25.7529 87.21V84.165C25.7529 84.055 25.6929 84 25.5729 84H24.1629C23.8429 84 23.6179 84.07 23.4879 84.21C23.3579 84.34 23.2929 84.565 23.2929 84.885V87.465C23.2929 87.785 23.3579 88.015 23.4879 88.155C23.6179 88.285 23.8429 88.35 24.1629 88.35H24.7179C25.4079 88.35 25.7529 87.97 25.7529 87.21ZM29.4666 84H28.8666C28.7466 84 28.6616 83.98 28.6116 83.94C28.5716 83.9 28.5516 83.82 28.5516 83.7V82.665C28.5516 82.455 28.6566 82.35 28.8666 82.35H29.4666C29.5766 82.35 29.6316 82.295 29.6316 82.185V80.76C29.6316 80.55 29.7416 80.445 29.9616 80.445H31.2216C31.4316 80.445 31.5366 80.55 31.5366 80.76V82.185C31.5366 82.295 31.5966 82.35 31.7166 82.35H32.8866C33.0966 82.35 33.2016 82.455 33.2016 82.665V83.7C33.2016 83.81 33.1766 83.89 33.1266 83.94C33.0866 83.98 33.0066 84 32.8866 84H31.7166C31.5966 84 31.5366 84.055 31.5366 84.165V87.48C31.5366 87.79 31.6066 88.015 31.7466 88.155C31.8866 88.285 32.1166 88.35 32.4366 88.35H33.0366C33.2466 88.35 33.3516 88.455 33.3516 88.665V89.7C33.3516 89.81 33.3266 89.89 33.2766 89.94C33.2366 89.98 33.1566 90 33.0366 90H32.1216C31.3316 90 30.7166 89.79 30.2766 89.37C29.8466 88.95 29.6316 88.35 29.6316 87.57V84.165C29.6316 84.055 29.5766 84 29.4666 84ZM40.2296 90H36.9146C36.1246 90 35.5146 89.79 35.0846 89.37C34.6546 88.95 34.4396 88.345 34.4396 87.555V84.795C34.4396 84.005 34.6546 83.4 35.0846 82.98C35.5146 82.56 36.1246 82.35 36.9146 82.35H38.0996C38.8896 82.35 39.4996 82.56 39.9296 82.98C40.3596 83.4 40.5746 84.005 40.5746 84.795V86.7C40.5746 86.91 40.4696 87.015 40.2596 87.015H36.4946C36.3746 87.015 36.3146 87.07 36.3146 87.18V87.51C36.3146 87.82 36.3796 88.045 36.5096 88.185C36.6496 88.315 36.8796 88.38 37.1996 88.38H40.2296C40.4396 88.38 40.5446 88.49 40.5446 88.71V89.7C40.5446 89.81 40.5196 89.89 40.4696 89.94C40.4296 89.98 40.3496 90 40.2296 90ZM36.4946 85.74H38.5346C38.6446 85.74 38.6996 85.685 38.6996 85.575V84.855C38.6996 84.535 38.6346 84.31 38.5046 84.18C38.3746 84.05 38.1496 83.985 37.8296 83.985H37.1996C36.8796 83.985 36.6546 84.05 36.5246 84.18C36.3946 84.31 36.3296 84.535 36.3296 84.855V85.575C36.3296 85.685 36.3846 85.74 36.4946 85.74ZM46.4527 90H45.0127C44.8327 90 44.7727 89.895 44.8327 89.685L47.2027 80.67C47.2727 80.46 47.4227 80.355 47.6527 80.355H49.6477C49.8977 80.355 50.0477 80.46 50.0977 80.67L52.4677 89.685C52.5277 89.895 52.4677 90 52.2877 90H50.8477C50.7377 90 50.6627 89.98 50.6227 89.94C50.5827 89.89 50.5527 89.805 50.5327 89.685L50.1127 88.035H47.1877L46.7677 89.685C46.7477 89.805 46.7127 89.89 46.6627 89.94C46.6227 89.98 46.5527 90 46.4527 90ZM48.6277 82.17L47.5477 86.505H49.7677L48.6877 82.17H48.6277ZM58.5223 88.665V89.7C58.5223 89.81 58.4973 89.89 58.4473 89.94C58.4073 89.98 58.3273 90 58.2073 90H55.9723C55.1823 90 54.5723 89.79 54.1423 89.37C53.7123 88.95 53.4973 88.345 53.4973 87.555V84.795C53.4973 84.005 53.7123 83.4 54.1423 82.98C54.5723 82.56 55.1823 82.35 55.9723 82.35H58.2073C58.4173 82.35 58.5223 82.455 58.5223 82.665V83.7C58.5223 83.81 58.4973 83.89 58.4473 83.94C58.4073 83.98 58.3273 84 58.2073 84H56.2723C55.9623 84 55.7373 84.07 55.5973 84.21C55.4673 84.34 55.4023 84.565 55.4023 84.885V87.465C55.4023 87.785 55.4673 88.015 55.5973 88.155C55.7373 88.285 55.9623 88.35 56.2723 88.35H58.2073C58.4173 88.35 58.5223 88.455 58.5223 88.665ZM64.6893 88.665V89.7C64.6893 89.81 64.6643 89.89 64.6143 89.94C64.5743 89.98 64.4943 90 64.3743 90H62.1393C61.3493 90 60.7393 89.79 60.3093 89.37C59.8793 88.95 59.6643 88.345 59.6643 87.555V84.795C59.6643 84.005 59.8793 83.4 60.3093 82.98C60.7393 82.56 61.3493 82.35 62.1393 82.35H64.3743C64.5843 82.35 64.6893 82.455 64.6893 82.665V83.7C64.6893 83.81 64.6643 83.89 64.6143 83.94C64.5743 83.98 64.4943 84 64.3743 84H62.4393C62.1293 84 61.9043 84.07 61.7643 84.21C61.6343 84.34 61.5693 84.565 61.5693 84.885V87.465C61.5693 87.785 61.6343 88.015 61.7643 88.155C61.9043 88.285 62.1293 88.35 62.4393 88.35H64.3743C64.5843 88.35 64.6893 88.455 64.6893 88.665ZM69.6413 90H68.3063C67.5163 90 66.9063 89.79 66.4763 89.37C66.0463 88.95 65.8313 88.345 65.8313 87.555V84.795C65.8313 84.005 66.0463 83.4 66.4763 82.98C66.9063 82.56 67.5163 82.35 68.3063 82.35H69.6413C70.4213 82.35 71.0263 82.565 71.4563 82.995C71.8963 83.415 72.1163 84.015 72.1163 84.795V87.555C72.1163 88.335 71.8963 88.94 71.4563 89.37C71.0263 89.79 70.4213 90 69.6413 90ZM68.5913 88.365H69.3563C69.6763 88.365 69.9013 88.3 70.0313 88.17C70.1713 88.04 70.2413 87.815 70.2413 87.495V84.855C70.2413 84.535 70.1713 84.31 70.0313 84.18C69.9013 84.05 69.6763 83.985 69.3563 83.985H68.5913C68.2713 83.985 68.0463 84.05 67.9163 84.18C67.7863 84.31 67.7213 84.535 67.7213 84.855V87.495C67.7213 87.815 67.7863 88.04 67.9163 88.17C68.0463 88.3 68.2713 88.365 68.5913 88.365ZM76.3731 90H75.8781C75.1081 90 74.5231 89.79 74.1231 89.37C73.7331 88.95 73.5381 88.345 73.5381 87.555V82.665C73.5381 82.455 73.6431 82.35 73.8531 82.35H75.1281C75.3381 82.35 75.4431 82.455 75.4431 82.665V87.465C75.4431 87.785 75.5081 88.015 75.6381 88.155C75.7781 88.285 76.0031 88.35 76.3131 88.35H76.8681C77.5581 88.35 77.9031 87.97 77.9031 87.21V82.665C77.9031 82.455 78.0081 82.35 78.2181 82.35H79.4781C79.6981 82.35 79.8081 82.455 79.8081 82.665V89.685C79.8081 89.895 79.6981 90 79.4781 90H78.2181C78.0081 90 77.9031 89.895 77.9031 89.685V89.19H77.8431C77.7331 89.46 77.5381 89.665 77.2581 89.805C76.9781 89.935 76.6831 90 76.3731 90ZM83.0546 90H81.7796C81.5696 90 81.4646 89.895 81.4646 89.685V82.665C81.4646 82.455 81.5696 82.35 81.7796 82.35H83.0546C83.2646 82.35 83.3696 82.455 83.3696 82.665V83.16H83.4296C83.6496 82.62 84.1396 82.35 84.8996 82.35H85.3796C86.9496 82.35 87.7346 83.165 87.7346 84.795V89.685C87.7346 89.895 87.6246 90 87.4046 90H86.1446C85.9346 90 85.8296 89.895 85.8296 89.685V84.885C85.8296 84.565 85.7596 84.34 85.6196 84.21C85.4896 84.07 85.2646 84 84.9446 84H84.4046C83.7146 84 83.3696 84.38 83.3696 85.14V89.685C83.3696 89.895 83.2646 90 83.0546 90ZM89.4812 84H88.8812C88.7612 84 88.6762 83.98 88.6262 83.94C88.5862 83.9 88.5662 83.82 88.5662 83.7V82.665C88.5662 82.455 88.6712 82.35 88.8812 82.35H89.4812C89.5912 82.35 89.6462 82.295 89.6462 82.185V80.76C89.6462 80.55 89.7562 80.445 89.9762 80.445H91.2362C91.4462 80.445 91.5512 80.55 91.5512 80.76V82.185C91.5512 82.295 91.6112 82.35 91.7312 82.35H92.9012C93.1112 82.35 93.2162 82.455 93.2162 82.665V83.7C93.2162 83.81 93.1912 83.89 93.1412 83.94C93.1012 83.98 93.0212 84 92.9012 84H91.7312C91.6112 84 91.5512 84.055 91.5512 84.165V87.48C91.5512 87.79 91.6212 88.015 91.7612 88.155C91.9012 88.285 92.1312 88.35 92.4512 88.35H93.0512C93.2612 88.35 93.3662 88.455 93.3662 88.665V89.7C93.3662 89.81 93.3412 89.89 93.2912 89.94C93.2512 89.98 93.1712 90 93.0512 90H92.1362C91.3462 90 90.7312 89.79 90.2912 89.37C89.8612 88.95 89.6462 88.35 89.6462 87.57V84.165C89.6462 84.055 89.5912 84 89.4812 84Z" fill="#4E4B63"/>
<path d="M69 51.5C69 64.4982 58.6832 75 46 75C33.3168 75 23 64.4982 23 51.5C23 38.5018 33.3168 28 46 28C58.6832 28 69 38.5018 69 51.5Z" fill="white" stroke="#7868E6" stroke-width="2"/>
<path d="M43.345 49.04V47.81C43.345 47.64 43.42 47.51 43.57 47.42L44.935 46.565C45.165 46.425 45.36 46.355 45.52 46.355H46.72C46.93 46.355 47.035 46.46 47.035 46.67V55.685C47.035 55.805 47.01 55.89 46.96 55.94C46.92 55.98 46.845 56 46.735 56H45.445C45.235 56 45.13 55.895 45.13 55.685V48.38L43.66 49.22C43.45 49.31 43.345 49.25 43.345 49.04Z" fill="#7868E6"/>
<circle cx="46" cy="103" r="8" fill="#7868E6"/>
<path d="M47.8026 103.354C47.9979 103.158 47.9979 102.842 47.8026 102.646L44.6207 99.4645C44.4254 99.2692 44.1088 99.2692 43.9135 99.4645C43.7183 99.6597 43.7183 99.9763 43.9135 100.172L46.742 103L43.9135 105.828C43.7183 106.024 43.7183 106.34 43.9135 106.536C44.1088 106.731 44.4254 106.731 44.6207 106.536L47.8026 103.354ZM47 103.5L47.4491 103.5L47.4491 102.5L47 102.5L47 103.5Z" fill="white"/>
<path d="M115.707 52.7071C116.098 52.3166 116.098 51.6834 115.707 51.2929L109.343 44.9289C108.953 44.5384 108.319 44.5384 107.929 44.9289C107.538 45.3195 107.538 45.9526 107.929 46.3431L113.586 52L107.929 57.6569C107.538 58.0474 107.538 58.6805 107.929 59.0711C108.319 59.4616 108.953 59.4616 109.343 59.0711L115.707 52.7071ZM94 53L115 53L115 51L94 51L94 53Z" fill="#7868E6"/>
<path d="M119.735 87.54V87.24C119.735 87.03 119.84 86.925 120.05 86.925H121.325C121.535 86.925 121.64 87.03 121.64 87.24V87.36C121.64 87.74 121.715 88 121.865 88.14C122.015 88.28 122.29 88.35 122.69 88.35H123.395C123.785 88.35 124.055 88.275 124.205 88.125C124.365 87.975 124.445 87.695 124.445 87.285V87.105C124.445 86.815 124.325 86.595 124.085 86.445C123.855 86.285 123.565 86.19 123.215 86.16C122.865 86.13 122.485 86.075 122.075 85.995C121.675 85.905 121.3 85.795 120.95 85.665C120.6 85.525 120.305 85.26 120.065 84.87C119.835 84.47 119.72 83.96 119.72 83.34V82.815C119.72 82.035 119.94 81.43 120.38 81C120.82 80.57 121.43 80.355 122.21 80.355H123.71C124.5 80.355 125.115 80.57 125.555 81C125.995 81.43 126.215 82.035 126.215 82.815V83.1C126.215 83.31 126.11 83.415 125.9 83.415H124.625C124.415 83.415 124.31 83.31 124.31 83.1V83.01C124.31 82.62 124.235 82.355 124.085 82.215C123.935 82.075 123.66 82.005 123.26 82.005H122.675C122.265 82.005 121.985 82.085 121.835 82.245C121.695 82.395 121.625 82.695 121.625 83.145V83.43C121.625 83.9 122.035 84.17 122.855 84.24C123.705 84.31 124.46 84.48 125.12 84.75C125.47 84.9 125.76 85.17 125.99 85.56C126.23 85.94 126.35 86.43 126.35 87.03V87.54C126.35 88.32 126.13 88.925 125.69 89.355C125.25 89.785 124.64 90 123.86 90H122.225C121.445 90 120.835 89.785 120.395 89.355C119.955 88.925 119.735 88.32 119.735 87.54ZM133.551 90H130.236C129.446 90 128.836 89.79 128.406 89.37C127.976 88.95 127.761 88.345 127.761 87.555V84.795C127.761 84.005 127.976 83.4 128.406 82.98C128.836 82.56 129.446 82.35 130.236 82.35H131.421C132.211 82.35 132.821 82.56 133.251 82.98C133.681 83.4 133.896 84.005 133.896 84.795V86.7C133.896 86.91 133.791 87.015 133.581 87.015H129.816C129.696 87.015 129.636 87.07 129.636 87.18V87.51C129.636 87.82 129.701 88.045 129.831 88.185C129.971 88.315 130.201 88.38 130.521 88.38H133.551C133.761 88.38 133.866 88.49 133.866 88.71V89.7C133.866 89.81 133.841 89.89 133.791 89.94C133.751 89.98 133.671 90 133.551 90ZM129.816 85.74H131.856C131.966 85.74 132.021 85.685 132.021 85.575V84.855C132.021 84.535 131.956 84.31 131.826 84.18C131.696 84.05 131.471 83.985 131.151 83.985H130.521C130.201 83.985 129.976 84.05 129.846 84.18C129.716 84.31 129.651 84.535 129.651 84.855V85.575C129.651 85.685 129.706 85.74 129.816 85.74ZM136.988 90H135.713C135.503 90 135.398 89.895 135.398 89.685V79.77C135.398 79.56 135.503 79.455 135.713 79.455H136.988C137.198 79.455 137.303 79.56 137.303 79.77V89.685C137.303 89.895 137.198 90 136.988 90ZM144.669 90H141.354C140.564 90 139.954 89.79 139.524 89.37C139.094 88.95 138.879 88.345 138.879 87.555V84.795C138.879 84.005 139.094 83.4 139.524 82.98C139.954 82.56 140.564 82.35 141.354 82.35H142.539C143.329 82.35 143.939 82.56 144.369 82.98C144.799 83.4 145.014 84.005 145.014 84.795V86.7C145.014 86.91 144.909 87.015 144.699 87.015H140.934C140.814 87.015 140.754 87.07 140.754 87.18V87.51C140.754 87.82 140.819 88.045 140.949 88.185C141.089 88.315 141.319 88.38 141.639 88.38H144.669C144.879 88.38 144.984 88.49 144.984 88.71V89.7C144.984 89.81 144.959 89.89 144.909 89.94C144.869 89.98 144.789 90 144.669 90ZM140.934 85.74H142.974C143.084 85.74 143.139 85.685 143.139 85.575V84.855C143.139 84.535 143.074 84.31 142.944 84.18C142.814 84.05 142.589 83.985 142.269 83.985H141.639C141.319 83.985 141.094 84.05 140.964 84.18C140.834 84.31 140.769 84.535 140.769 84.855V85.575C140.769 85.685 140.824 85.74 140.934 85.74ZM151.316 88.665V89.7C151.316 89.81 151.291 89.89 151.241 89.94C151.201 89.98 151.121 90 151.001 90H148.766C147.976 90 147.366 89.79 146.936 89.37C146.506 88.95 146.291 88.345 146.291 87.555V84.795C146.291 84.005 146.506 83.4 146.936 82.98C147.366 82.56 147.976 82.35 148.766 82.35H151.001C151.211 82.35 151.316 82.455 151.316 82.665V83.7C151.316 83.81 151.291 83.89 151.241 83.94C151.201 83.98 151.121 84 151.001 84H149.066C148.756 84 148.531 84.07 148.391 84.21C148.261 84.34 148.196 84.565 148.196 84.885V87.465C148.196 87.785 148.261 88.015 148.391 88.155C148.531 88.285 148.756 88.35 149.066 88.35H151.001C151.211 88.35 151.316 88.455 151.316 88.665ZM152.773 84H152.173C152.053 84 151.968 83.98 151.918 83.94C151.878 83.9 151.858 83.82 151.858 83.7V82.665C151.858 82.455 151.963 82.35 152.173 82.35H152.773C152.883 82.35 152.938 82.295 152.938 82.185V80.76C152.938 80.55 153.048 80.445 153.268 80.445H154.528C154.738 80.445 154.843 80.55 154.843 80.76V82.185C154.843 82.295 154.903 82.35 155.023 82.35H156.193C156.403 82.35 156.508 82.455 156.508 82.665V83.7C156.508 83.81 156.483 83.89 156.433 83.94C156.393 83.98 156.313 84 156.193 84H155.023C154.903 84 154.843 84.055 154.843 84.165V87.48C154.843 87.79 154.913 88.015 155.053 88.155C155.193 88.285 155.423 88.35 155.743 88.35H156.343C156.553 88.35 156.658 88.455 156.658 88.665V89.7C156.658 89.81 156.633 89.89 156.583 89.94C156.543 89.98 156.463 90 156.343 90H155.428C154.638 90 154.023 89.79 153.583 89.37C153.153 88.95 152.938 88.35 152.938 87.57V84.165C152.938 84.055 152.883 84 152.773 84ZM162.437 92.535H161.477C161.277 92.535 161.177 92.425 161.177 92.205V91.2C161.177 90.98 161.277 90.87 161.477 90.87H161.792C162.422 90.87 162.847 90.78 163.067 90.6C163.297 90.43 163.472 90.095 163.592 89.595H162.797C162.607 89.595 162.482 89.49 162.422 89.28L160.667 82.665C160.607 82.455 160.682 82.35 160.892 82.35H162.227C162.427 82.35 162.552 82.455 162.602 82.665L163.892 88.2H163.952L165.227 82.665C165.267 82.455 165.392 82.35 165.602 82.35H166.862C167.112 82.35 167.212 82.46 167.162 82.68L165.332 90C165.112 90.83 164.772 91.46 164.312 91.89C163.852 92.32 163.227 92.535 162.437 92.535ZM171.913 90H170.578C169.788 90 169.178 89.79 168.748 89.37C168.318 88.95 168.103 88.345 168.103 87.555V84.795C168.103 84.005 168.318 83.4 168.748 82.98C169.178 82.56 169.788 82.35 170.578 82.35H171.913C172.693 82.35 173.298 82.565 173.728 82.995C174.168 83.415 174.388 84.015 174.388 84.795V87.555C174.388 88.335 174.168 88.94 173.728 89.37C173.298 89.79 172.693 90 171.913 90ZM170.863 88.365H171.628C171.948 88.365 172.173 88.3 172.303 88.17C172.443 88.04 172.513 87.815 172.513 87.495V84.855C172.513 84.535 172.443 84.31 172.303 84.18C172.173 84.05 171.948 83.985 171.628 83.985H170.863C170.543 83.985 170.318 84.05 170.188 84.18C170.058 84.31 169.993 84.535 169.993 84.855V87.495C169.993 87.815 170.058 88.04 170.188 88.17C170.318 88.3 170.543 88.365 170.863 88.365ZM178.645 90H178.15C177.38 90 176.795 89.79 176.395 89.37C176.005 88.95 175.81 88.345 175.81 87.555V82.665C175.81 82.455 175.915 82.35 176.125 82.35H177.4C177.61 82.35 177.715 82.455 177.715 82.665V87.465C177.715 87.785 177.78 88.015 177.91 88.155C178.05 88.285 178.275 88.35 178.585 88.35H179.14C179.83 88.35 180.175 87.97 180.175 87.21V82.665C180.175 82.455 180.28 82.35 180.49 82.35H181.75C181.97 82.35 182.08 82.455 182.08 82.665V89.685C182.08 89.895 181.97 90 181.75 90H180.49C180.28 90 180.175 89.895 180.175 89.685V89.19H180.115C180.005 89.46 179.81 89.665 179.53 89.805C179.25 89.935 178.955 90 178.645 90ZM185.326 90H184.051C183.841 90 183.736 89.895 183.736 89.685V82.665C183.736 82.455 183.841 82.35 184.051 82.35H185.326C185.536 82.35 185.641 82.455 185.641 82.665V83.175H185.701C185.811 82.905 186.006 82.7 186.286 82.56C186.566 82.42 186.861 82.35 187.171 82.35H187.711C187.911 82.35 188.011 82.455 188.011 82.665V83.7C188.011 83.82 187.986 83.905 187.936 83.955C187.896 83.995 187.821 84.01 187.711 84H186.676C185.986 84 185.641 84.39 185.641 85.17V89.685C185.641 89.895 185.536 90 185.326 90ZM193.852 92.04H192.577C192.367 92.04 192.262 91.94 192.262 91.74V82.665C192.262 82.455 192.367 82.35 192.577 82.35H193.852C194.062 82.35 194.167 82.455 194.167 82.665V83.16H194.227C194.337 82.89 194.532 82.69 194.812 82.56C195.092 82.42 195.387 82.35 195.697 82.35H196.312C197.082 82.35 197.662 82.56 198.052 82.98C198.452 83.4 198.652 84.005 198.652 84.795V87.555C198.652 88.345 198.452 88.95 198.052 89.37C197.662 89.79 197.082 90 196.312 90H195.697C195.387 90 195.092 89.935 194.812 89.805C194.532 89.665 194.337 89.46 194.227 89.19H194.167V91.74C194.167 91.94 194.062 92.04 193.852 92.04ZM195.202 88.35H195.862C196.182 88.35 196.407 88.285 196.537 88.155C196.677 88.015 196.747 87.785 196.747 87.465V84.885C196.747 84.565 196.677 84.34 196.537 84.21C196.407 84.07 196.182 84 195.862 84H195.202C194.512 84 194.167 84.38 194.167 85.14V87.21C194.167 87.97 194.512 88.35 195.202 88.35ZM201.822 90H200.547C200.337 90 200.232 89.895 200.232 89.685V79.77C200.232 79.56 200.337 79.455 200.547 79.455H201.822C202.032 79.455 202.137 79.56 202.137 79.77V89.685C202.137 89.895 202.032 90 201.822 90ZM206.548 90H206.188C205.398 90 204.788 89.79 204.358 89.37C203.928 88.95 203.713 88.345 203.713 87.555V84.795C203.713 84.005 203.928 83.4 204.358 82.98C204.788 82.56 205.398 82.35 206.188 82.35H209.653C209.873 82.35 209.983 82.455 209.983 82.665V89.685C209.983 89.895 209.873 90 209.653 90H208.393C208.183 90 208.078 89.895 208.078 89.685V89.19H208.018C207.908 89.46 207.713 89.665 207.433 89.805C207.153 89.935 206.858 90 206.548 90ZM208.078 87.21V84.165C208.078 84.055 208.018 84 207.898 84H206.488C206.168 84 205.943 84.07 205.813 84.21C205.683 84.34 205.618 84.565 205.618 84.885V87.465C205.618 87.785 205.683 88.015 205.813 88.155C205.943 88.285 206.168 88.35 206.488 88.35H207.043C207.733 88.35 208.078 87.97 208.078 87.21ZM213.217 90H211.942C211.732 90 211.627 89.895 211.627 89.685V82.665C211.627 82.455 211.732 82.35 211.942 82.35H213.217C213.427 82.35 213.532 82.455 213.532 82.665V83.16H213.592C213.812 82.62 214.302 82.35 215.062 82.35H215.542C217.112 82.35 217.897 83.165 217.897 84.795V89.685C217.897 89.895 217.787 90 217.567 90H216.307C216.097 90 215.992 89.895 215.992 89.685V84.885C215.992 84.565 215.922 84.34 215.782 84.21C215.652 84.07 215.427 84 215.107 84H214.567C213.877 84 213.532 84.38 213.532 85.14V89.685C213.532 89.895 213.427 90 213.217 90Z" fill="#4E4B63"/>
<path d="M190 51.5C190 64.4982 179.683 75 167 75C154.317 75 144 64.4982 144 51.5C144 38.5018 154.317 28 167 28C179.683 28 190 38.5018 190 51.5Z" fill="white" stroke="#7868E6" stroke-width="2"/>
<path d="M163.705 55.685V54.26C163.705 53.69 163.95 53.205 164.44 52.805L167.2 50.465C167.65 50.095 167.875 49.695 167.875 49.265V48.815C167.875 48.505 167.8 48.285 167.65 48.155C167.51 48.015 167.275 47.945 166.945 47.945H166.42C166.1 47.945 165.875 48.015 165.745 48.155C165.615 48.285 165.55 48.505 165.55 48.815V49.295C165.55 49.515 165.445 49.625 165.235 49.625H163.96C163.75 49.625 163.645 49.515 163.645 49.295V48.785C163.645 48.005 163.86 47.405 164.29 46.985C164.72 46.565 165.33 46.355 166.12 46.355H167.26C168.05 46.355 168.66 46.565 169.09 46.985C169.52 47.405 169.735 48.005 169.735 48.785V49.385C169.735 50.165 169.435 50.81 168.835 51.32L166.015 53.72C165.895 53.83 165.835 53.95 165.835 54.08V54.32H169.42C169.63 54.32 169.735 54.425 169.735 54.635V55.685C169.735 55.895 169.63 56 169.42 56H164.02C163.81 56 163.705 55.895 163.705 55.685Z" fill="#7868E6"/>
<circle cx="167" cy="103" r="8" fill="#7868E6"/>
<path d="M168.803 103.354C168.998 103.158 168.998 102.842 168.803 102.646L165.621 99.4645C165.425 99.2692 165.109 99.2692 164.914 99.4645C164.718 99.6597 164.718 99.9763 164.914 100.172L167.742 103L164.914 105.828C164.718 106.024 164.718 106.34 164.914 106.536C165.109 106.731 165.425 106.731 165.621 106.536L168.803 103.354ZM168 103.5L168.449 103.5L168.449 102.5L168 102.5L168 103.5Z" fill="white"/>
<path d="M305 51.5C305 64.4982 294.683 75 282 75C269.317 75 259 64.4982 259 51.5C259 38.5018 269.317 28 282 28C294.683 28 305 38.5018 305 51.5Z" fill="white" stroke="#F48B29" stroke-width="2"/>
<path d="M281.285 50.39H282.05C282.38 50.39 282.615 50.325 282.755 50.195C282.905 50.055 282.98 49.83 282.98 49.52V48.815C282.98 48.505 282.905 48.285 282.755 48.155C282.615 48.015 282.38 47.945 282.05 47.945H281.33C281.01 47.945 280.785 48.015 280.655 48.155C280.525 48.285 280.46 48.505 280.46 48.815V49.19C280.46 49.4 280.355 49.505 280.145 49.505H278.87C278.66 49.505 278.555 49.4 278.555 49.19V48.785C278.555 48.005 278.77 47.405 279.2 46.985C279.63 46.565 280.24 46.355 281.03 46.355H282.365C283.155 46.355 283.765 46.565 284.195 46.985C284.625 47.405 284.84 48.005 284.84 48.785V49.535C284.84 50.375 284.445 50.92 283.655 51.17C284.445 51.34 284.84 51.885 284.84 52.805V53.57C284.84 54.35 284.625 54.95 284.195 55.37C283.765 55.79 283.155 56 282.365 56H281.03C280.24 56 279.63 55.79 279.2 55.37C278.77 54.95 278.555 54.35 278.555 53.57V53.15C278.555 52.93 278.66 52.82 278.87 52.82H280.145C280.355 52.82 280.46 52.93 280.46 53.15V53.54C280.46 53.86 280.525 54.085 280.655 54.215C280.785 54.345 281.01 54.41 281.33 54.41H282.05C282.38 54.41 282.615 54.345 282.755 54.215C282.905 54.075 282.98 53.85 282.98 53.54V52.805C282.98 52.495 282.905 52.275 282.755 52.145C282.615 52.005 282.38 51.935 282.05 51.935H281.285C281.075 51.935 280.97 51.83 280.97 51.62V50.72C280.97 50.5 281.075 50.39 281.285 50.39Z" fill="#F48B29"/>
<circle cx="280" cy="106" r="8" fill="#F48B29"/>
<path d="M281.803 106.354C281.998 106.158 281.998 105.842 281.803 105.646L278.621 102.464C278.425 102.269 278.109 102.269 277.914 102.464C277.718 102.66 277.718 102.976 277.914 103.172L280.742 106L277.914 108.828C277.718 109.024 277.718 109.34 277.914 109.536C278.109 109.731 278.425 109.731 278.621 109.536L281.803 106.354ZM281 106.5L281.449 106.5L281.449 105.5L281 105.5L281 106.5Z" fill="white"/>
<path d="M236.195 90H231.29C231.08 90 230.975 89.895 230.975 89.685V80.67C230.975 80.46 231.08 80.355 231.29 80.355H236.195C236.395 80.355 236.495 80.46 236.495 80.67V81.69C236.495 81.9 236.395 82.005 236.195 82.005H233.06C232.94 82.005 232.88 82.06 232.88 82.17V84.12C232.88 84.23 232.94 84.285 233.06 84.285H235.625C235.835 84.285 235.94 84.39 235.94 84.6V85.62C235.94 85.83 235.835 85.935 235.625 85.935H233.06C232.94 85.935 232.88 85.99 232.88 86.1V88.185C232.88 88.295 232.94 88.35 233.06 88.35H236.195C236.395 88.35 236.495 88.455 236.495 88.665V89.685C236.495 89.895 236.395 90 236.195 90ZM239.593 90H238.318C238.108 90 238.003 89.895 238.003 89.685V82.665C238.003 82.455 238.108 82.35 238.318 82.35H239.593C239.803 82.35 239.908 82.455 239.908 82.665V83.16H239.968C240.188 82.62 240.678 82.35 241.438 82.35H241.918C243.488 82.35 244.273 83.165 244.273 84.795V89.685C244.273 89.895 244.163 90 243.943 90H242.683C242.473 90 242.368 89.895 242.368 89.685V84.885C242.368 84.565 242.298 84.34 242.158 84.21C242.028 84.07 241.803 84 241.483 84H240.943C240.253 84 239.908 84.38 239.908 85.14V89.685C239.908 89.895 239.803 90 239.593 90ZM245.929 81.06V79.755C245.929 79.555 246.029 79.455 246.229 79.455H247.534C247.734 79.455 247.834 79.55 247.834 79.74V81.06C247.834 81.26 247.734 81.36 247.534 81.36H246.229C246.029 81.36 245.929 81.26 245.929 81.06ZM245.344 92.49H244.339C244.129 92.49 244.024 92.385 244.024 92.175V91.155C244.024 90.945 244.129 90.84 244.339 90.84H244.759C245.209 90.84 245.514 90.76 245.674 90.6C245.844 90.44 245.929 90.135 245.929 89.685V82.665C245.929 82.455 246.034 82.35 246.244 82.35H247.519C247.729 82.35 247.834 82.455 247.834 82.665V90.03C247.834 90.81 247.614 91.415 247.174 91.845C246.734 92.275 246.124 92.49 245.344 92.49ZM253.22 90H251.885C251.095 90 250.485 89.79 250.055 89.37C249.625 88.95 249.41 88.345 249.41 87.555V84.795C249.41 84.005 249.625 83.4 250.055 82.98C250.485 82.56 251.095 82.35 251.885 82.35H253.22C254 82.35 254.605 82.565 255.035 82.995C255.475 83.415 255.695 84.015 255.695 84.795V87.555C255.695 88.335 255.475 88.94 255.035 89.37C254.605 89.79 254 90 253.22 90ZM252.17 88.365H252.935C253.255 88.365 253.48 88.3 253.61 88.17C253.75 88.04 253.82 87.815 253.82 87.495V84.855C253.82 84.535 253.75 84.31 253.61 84.18C253.48 84.05 253.255 83.985 252.935 83.985H252.17C251.85 83.985 251.625 84.05 251.495 84.18C251.365 84.31 251.3 84.535 251.3 84.855V87.495C251.3 87.815 251.365 88.04 251.495 88.17C251.625 88.3 251.85 88.365 252.17 88.365ZM258.437 92.535H257.477C257.277 92.535 257.177 92.425 257.177 92.205V91.2C257.177 90.98 257.277 90.87 257.477 90.87H257.792C258.422 90.87 258.847 90.78 259.067 90.6C259.297 90.43 259.472 90.095 259.592 89.595H258.797C258.607 89.595 258.482 89.49 258.422 89.28L256.667 82.665C256.607 82.455 256.682 82.35 256.892 82.35H258.227C258.427 82.35 258.552 82.455 258.602 82.665L259.892 88.2H259.952L261.227 82.665C261.267 82.455 261.392 82.35 261.602 82.35H262.862C263.112 82.35 263.212 82.46 263.162 82.68L261.332 90C261.112 90.83 260.772 91.46 260.312 91.89C259.852 92.32 259.227 92.535 258.437 92.535ZM273.189 90H269.874C269.084 90 268.474 89.79 268.044 89.37C267.614 88.95 267.399 88.345 267.399 87.555V84.795C267.399 84.005 267.614 83.4 268.044 82.98C268.474 82.56 269.084 82.35 269.874 82.35H271.059C271.849 82.35 272.459 82.56 272.889 82.98C273.319 83.4 273.534 84.005 273.534 84.795V86.7C273.534 86.91 273.429 87.015 273.219 87.015H269.454C269.334 87.015 269.274 87.07 269.274 87.18V87.51C269.274 87.82 269.339 88.045 269.469 88.185C269.609 88.315 269.839 88.38 270.159 88.38H273.189C273.399 88.38 273.504 88.49 273.504 88.71V89.7C273.504 89.81 273.479 89.89 273.429 89.94C273.389 89.98 273.309 90 273.189 90ZM269.454 85.74H271.494C271.604 85.74 271.659 85.685 271.659 85.575V84.855C271.659 84.535 271.594 84.31 271.464 84.18C271.334 84.05 271.109 83.985 270.789 83.985H270.159C269.839 83.985 269.614 84.05 269.484 84.18C269.354 84.31 269.289 84.535 269.289 84.855V85.575C269.289 85.685 269.344 85.74 269.454 85.74ZM274.631 82.35H275.951C276.151 82.35 276.271 82.455 276.311 82.665L277.601 88.305H277.706L278.966 82.665C279.006 82.455 279.131 82.35 279.341 82.35H280.661C280.871 82.35 280.946 82.455 280.886 82.665L278.996 89.67C278.956 89.89 278.821 90 278.591 90H276.686C276.476 90 276.341 89.89 276.281 89.67L274.406 82.665C274.346 82.455 274.421 82.35 274.631 82.35ZM287.617 90H284.302C283.512 90 282.902 89.79 282.472 89.37C282.042 88.95 281.827 88.345 281.827 87.555V84.795C281.827 84.005 282.042 83.4 282.472 82.98C282.902 82.56 283.512 82.35 284.302 82.35H285.487C286.277 82.35 286.887 82.56 287.317 82.98C287.747 83.4 287.962 84.005 287.962 84.795V86.7C287.962 86.91 287.857 87.015 287.647 87.015H283.882C283.762 87.015 283.702 87.07 283.702 87.18V87.51C283.702 87.82 283.767 88.045 283.897 88.185C284.037 88.315 284.267 88.38 284.587 88.38H287.617C287.827 88.38 287.932 88.49 287.932 88.71V89.7C287.932 89.81 287.907 89.89 287.857 89.94C287.817 89.98 287.737 90 287.617 90ZM283.882 85.74H285.922C286.032 85.74 286.087 85.685 286.087 85.575V84.855C286.087 84.535 286.022 84.31 285.892 84.18C285.762 84.05 285.537 83.985 285.217 83.985H284.587C284.267 83.985 284.042 84.05 283.912 84.18C283.782 84.31 283.717 84.535 283.717 84.855V85.575C283.717 85.685 283.772 85.74 283.882 85.74ZM290.979 90H289.704C289.494 90 289.389 89.895 289.389 89.685V82.665C289.389 82.455 289.494 82.35 289.704 82.35H290.979C291.189 82.35 291.294 82.455 291.294 82.665V83.175H291.354C291.464 82.905 291.659 82.7 291.939 82.56C292.219 82.42 292.514 82.35 292.824 82.35H293.364C293.564 82.35 293.664 82.455 293.664 82.665V83.7C293.664 83.82 293.639 83.905 293.589 83.955C293.549 83.995 293.474 84.01 293.364 84H292.329C291.639 84 291.294 84.39 291.294 85.17V89.685C291.294 89.895 291.189 90 290.979 90ZM295.864 92.535H294.904C294.704 92.535 294.604 92.425 294.604 92.205V91.2C294.604 90.98 294.704 90.87 294.904 90.87H295.219C295.849 90.87 296.274 90.78 296.494 90.6C296.724 90.43 296.899 90.095 297.019 89.595H296.224C296.034 89.595 295.909 89.49 295.849 89.28L294.094 82.665C294.034 82.455 294.109 82.35 294.319 82.35H295.654C295.854 82.35 295.979 82.455 296.029 82.665L297.319 88.2H297.379L298.654 82.665C298.694 82.455 298.819 82.35 299.029 82.35H300.289C300.539 82.35 300.639 82.46 300.589 82.68L298.759 90C298.539 90.83 298.199 91.46 297.739 91.89C297.279 92.32 296.654 92.535 295.864 92.535ZM301.844 84H301.244C301.124 84 301.039 83.98 300.989 83.94C300.949 83.9 300.929 83.82 300.929 83.7V82.665C300.929 82.455 301.034 82.35 301.244 82.35H301.844C301.954 82.35 302.009 82.295 302.009 82.185V80.76C302.009 80.55 302.119 80.445 302.339 80.445H303.599C303.809 80.445 303.914 80.55 303.914 80.76V82.185C303.914 82.295 303.974 82.35 304.094 82.35H305.264C305.474 82.35 305.579 82.455 305.579 82.665V83.7C305.579 83.81 305.554 83.89 305.504 83.94C305.464 83.98 305.384 84 305.264 84H304.094C303.974 84 303.914 84.055 303.914 84.165V87.48C303.914 87.79 303.984 88.015 304.124 88.155C304.264 88.285 304.494 88.35 304.814 88.35H305.414C305.624 88.35 305.729 88.455 305.729 88.665V89.7C305.729 89.81 305.704 89.89 305.654 89.94C305.614 89.98 305.534 90 305.414 90H304.499C303.709 90 303.094 89.79 302.654 89.37C302.224 88.95 302.009 88.35 302.009 87.57V84.165C302.009 84.055 301.954 84 301.844 84ZM308.558 90H307.283C307.073 90 306.968 89.895 306.968 89.685V79.77C306.968 79.56 307.073 79.455 307.283 79.455H308.558C308.768 79.455 308.873 79.56 308.873 79.77V83.16H308.933C309.153 82.62 309.643 82.35 310.403 82.35H310.883C312.453 82.35 313.238 83.165 313.238 84.795V89.685C313.238 89.895 313.128 90 312.908 90H311.648C311.438 90 311.333 89.895 311.333 89.685V84.885C311.333 84.565 311.263 84.34 311.123 84.21C310.993 84.07 310.768 84 310.448 84H309.908C309.218 84 308.873 84.38 308.873 85.14V89.685C308.873 89.895 308.768 90 308.558 90ZM314.894 81.06V79.755C314.894 79.555 314.994 79.455 315.194 79.455H316.499C316.699 79.455 316.799 79.55 316.799 79.74V81.06C316.799 81.26 316.699 81.36 316.499 81.36H315.194C314.994 81.36 314.894 81.26 314.894 81.06ZM314.894 89.685V82.665C314.894 82.455 314.994 82.35 315.194 82.35H316.484C316.694 82.35 316.799 82.455 316.799 82.665V89.685C316.799 89.815 316.774 89.9 316.724 89.94C316.684 89.98 316.609 90 316.499 90H315.209C314.999 90 314.894 89.895 314.894 89.685ZM320.115 90H318.84C318.63 90 318.525 89.895 318.525 89.685V82.665C318.525 82.455 318.63 82.35 318.84 82.35H320.115C320.325 82.35 320.43 82.455 320.43 82.665V83.16H320.49C320.71 82.62 321.2 82.35 321.96 82.35H322.44C324.01 82.35 324.795 83.165 324.795 84.795V89.685C324.795 89.895 324.685 90 324.465 90H323.205C322.995 90 322.89 89.895 322.89 89.685V84.885C322.89 84.565 322.82 84.34 322.68 84.21C322.55 84.07 322.325 84 322.005 84H321.465C320.775 84 320.43 84.38 320.43 85.14V89.685C320.43 89.895 320.325 90 320.115 90ZM329.077 89.655H328.582C327.812 89.655 327.227 89.445 326.827 89.025C326.437 88.605 326.242 88 326.242 87.21V84.795C326.242 84.005 326.457 83.4 326.887 82.98C327.317 82.56 327.927 82.35 328.717 82.35H332.182C332.402 82.35 332.512 82.455 332.512 82.665V90.06C332.512 90.84 332.292 91.44 331.852 91.86C331.422 92.28 330.817 92.49 330.037 92.49H327.157C327.037 92.49 326.952 92.465 326.902 92.415C326.862 92.375 326.842 92.3 326.842 92.19V91.155C326.842 90.945 326.947 90.84 327.157 90.84H329.722C330.042 90.84 330.267 90.77 330.397 90.63C330.537 90.5 330.607 90.28 330.607 89.97V88.83H330.547C330.437 89.1 330.242 89.305 329.962 89.445C329.682 89.585 329.387 89.655 329.077 89.655ZM330.607 86.865V84.165C330.607 84.055 330.547 84 330.427 84H329.017C328.697 84 328.472 84.07 328.342 84.21C328.212 84.34 328.147 84.565 328.147 84.885V87.12C328.147 87.44 328.212 87.665 328.342 87.795C328.472 87.925 328.697 87.99 329.017 87.99H329.572C330.262 87.99 330.607 87.615 330.607 86.865Z" fill="#4E4B63"/>
<path d="M235.707 52.7071C236.098 52.3166 236.098 51.6834 235.707 51.2929L229.343 44.9289C228.953 44.5384 228.319 44.5384 227.929 44.9289C227.538 45.3195 227.538 45.9526 227.929 46.3431L233.586 52L227.929 57.6569C227.538 58.0474 227.538 58.6805 227.929 59.0711C228.319 59.4616 228.953 59.4616 229.343 59.0711L235.707 52.7071ZM214 53L235 53L235 51L214 51L214 53Z" fill="#F48B29"/>
</svg>
