<svg width="550" height="161" viewBox="0 0 550 161" fill="none" xmlns="http://www.w3.org/2000/svg">
<path d="M6.58 124H4.4C3.34667 124 2.53333 123.72 1.96 123.16C1.38667 122.6 1.1 121.793 1.1 120.74V114.4C1.1 113.347 1.38667 112.54 1.96 111.98C2.53333 111.42 3.34667 111.14 4.4 111.14H6.58C7.62 111.14 8.42667 111.427 9 112C9.58667 112.56 9.88 113.36 9.88 114.4V115.34C9.88 115.633 9.73333 115.78 9.44 115.78H7.76C7.48 115.78 7.34 115.633 7.34 115.34V114.52C7.34 114.093 7.24667 113.793 7.06 113.62C6.88667 113.433 6.58667 113.34 6.16 113.34H4.8C4.38667 113.34 4.08667 113.433 3.9 113.62C3.72667 113.793 3.64 114.093 3.64 114.52V120.62C3.64 121.047 3.72667 121.353 3.9 121.54C4.08667 121.713 4.38667 121.8 4.8 121.8H6.16C6.58667 121.8 6.88667 121.713 7.06 121.54C7.24667 121.353 7.34 121.047 7.34 120.62V119.8C7.34 119.507 7.48 119.36 7.76 119.36H9.44C9.73333 119.36 9.88 119.507 9.88 119.8V120.74C9.88 121.78 9.58667 122.587 9 123.16C8.42667 123.72 7.62 124 6.58 124ZM13.9817 124H12.2817C12.0017 124 11.8617 123.86 11.8617 123.58V114.22C11.8617 113.94 12.0017 113.8 12.2817 113.8H13.9817C14.2617 113.8 14.4017 113.94 14.4017 114.22V114.9H14.4817C14.6284 114.54 14.8884 114.267 15.2617 114.08C15.6351 113.893 16.0284 113.8 16.4417 113.8H17.1617C17.4284 113.8 17.5617 113.94 17.5617 114.22V115.6C17.5617 115.76 17.5284 115.873 17.4617 115.94C17.4084 115.993 17.3084 116.013 17.1617 116H15.7817C14.8617 116 14.4017 116.52 14.4017 117.56V123.58C14.4017 123.86 14.2617 124 13.9817 124ZM26.3544 124H21.9344C20.881 124 20.0677 123.72 19.4944 123.16C18.921 122.6 18.6344 121.793 18.6344 120.74V117.06C18.6344 116.007 18.921 115.2 19.4944 114.64C20.0677 114.08 20.881 113.8 21.9344 113.8H23.5144C24.5677 113.8 25.381 114.08 25.9544 114.64C26.5277 115.2 26.8144 116.007 26.8144 117.06V119.6C26.8144 119.88 26.6744 120.02 26.3944 120.02H21.3744C21.2144 120.02 21.1344 120.093 21.1344 120.24V120.68C21.1344 121.093 21.221 121.393 21.3944 121.58C21.581 121.753 21.8877 121.84 22.3144 121.84H26.3544C26.6344 121.84 26.7744 121.987 26.7744 122.28V123.6C26.7744 123.747 26.741 123.853 26.6744 123.92C26.621 123.973 26.5144 124 26.3544 124ZM21.3744 118.32H24.0944C24.241 118.32 24.3144 118.247 24.3144 118.1V117.14C24.3144 116.713 24.2277 116.413 24.0544 116.24C23.881 116.067 23.581 115.98 23.1544 115.98H22.3144C21.8877 115.98 21.5877 116.067 21.4144 116.24C21.241 116.413 21.1544 116.713 21.1544 117.14V118.1C21.1544 118.247 21.2277 118.32 21.3744 118.32ZM32.2972 124H31.8172C30.7639 124 29.9505 123.72 29.3772 123.16C28.8039 122.6 28.5172 121.793 28.5172 120.74V117.06C28.5172 116.007 28.8039 115.2 29.3772 114.64C29.9505 114.08 30.7639 113.8 31.8172 113.8H36.4372C36.7305 113.8 36.8772 113.94 36.8772 114.22V123.58C36.8772 123.86 36.7305 124 36.4372 124H34.7572C34.4772 124 34.3372 123.86 34.3372 123.58V122.92H34.2572C34.1105 123.28 33.8505 123.553 33.4772 123.74C33.1039 123.913 32.7105 124 32.2972 124ZM34.3372 120.28V116.22C34.3372 116.073 34.2572 116 34.0972 116H32.2172C31.7905 116 31.4905 116.093 31.3172 116.28C31.1439 116.453 31.0572 116.753 31.0572 117.18V120.62C31.0572 121.047 31.1439 121.353 31.3172 121.54C31.4905 121.713 31.7905 121.8 32.2172 121.8H32.9572C33.8772 121.8 34.3372 121.293 34.3372 120.28ZM39.2887 116H38.4888C38.3288 116 38.2154 115.973 38.1488 115.92C38.0954 115.867 38.0688 115.76 38.0688 115.6V114.22C38.0688 113.94 38.2088 113.8 38.4888 113.8H39.2887C39.4354 113.8 39.5088 113.727 39.5088 113.58V111.68C39.5088 111.4 39.6554 111.26 39.9488 111.26H41.6288C41.9088 111.26 42.0488 111.4 42.0488 111.68V113.58C42.0488 113.727 42.1288 113.8 42.2888 113.8H43.8487C44.1288 113.8 44.2688 113.94 44.2688 114.22V115.6C44.2688 115.747 44.2354 115.853 44.1688 115.92C44.1154 115.973 44.0088 116 43.8487 116H42.2888C42.1288 116 42.0488 116.073 42.0488 116.22V120.64C42.0488 121.053 42.1421 121.353 42.3288 121.54C42.5154 121.713 42.8221 121.8 43.2487 121.8H44.0488C44.3288 121.8 44.4688 121.94 44.4688 122.22V123.6C44.4688 123.747 44.4354 123.853 44.3688 123.92C44.3154 123.973 44.2088 124 44.0488 124H42.8288C41.7754 124 40.9554 123.72 40.3688 123.16C39.7954 122.6 39.5088 121.8 39.5088 120.76V116.22C39.5088 116.073 39.4354 116 39.2887 116ZM53.6395 124H49.2195C48.1662 124 47.3529 123.72 46.7795 123.16C46.2062 122.6 45.9195 121.793 45.9195 120.74V117.06C45.9195 116.007 46.2062 115.2 46.7795 114.64C47.3529 114.08 48.1662 113.8 49.2195 113.8H50.7995C51.8529 113.8 52.6662 114.08 53.2395 114.64C53.8129 115.2 54.0995 116.007 54.0995 117.06V119.6C54.0995 119.88 53.9595 120.02 53.6795 120.02H48.6595C48.4995 120.02 48.4195 120.093 48.4195 120.24V120.68C48.4195 121.093 48.5062 121.393 48.6795 121.58C48.8662 121.753 49.1729 121.84 49.5995 121.84H53.6395C53.9195 121.84 54.0595 121.987 54.0595 122.28V123.6C54.0595 123.747 54.0262 123.853 53.9595 123.92C53.9062 123.973 53.7995 124 53.6395 124ZM48.6595 118.32H51.3795C51.5262 118.32 51.5995 118.247 51.5995 118.1V117.14C51.5995 116.713 51.5129 116.413 51.3395 116.24C51.1662 116.067 50.8662 115.98 50.4395 115.98H49.5995C49.1729 115.98 48.8729 116.067 48.6995 116.24C48.5262 116.413 48.4395 116.713 48.4395 117.14V118.1C48.4395 118.247 48.5129 118.32 48.6595 118.32ZM61.9369 124H60.0169C59.7769 124 59.6969 123.86 59.7769 123.58L62.9369 111.56C63.0302 111.28 63.2302 111.14 63.5369 111.14H66.1969C66.5302 111.14 66.7302 111.28 66.7969 111.56L69.9569 123.58C70.0369 123.86 69.9569 124 69.7169 124H67.7969C67.6502 124 67.5502 123.973 67.4969 123.92C67.4435 123.853 67.4035 123.74 67.3769 123.58L66.8169 121.38H62.9169L62.3569 123.58C62.3302 123.74 62.2835 123.853 62.2169 123.92C62.1635 123.973 62.0702 124 61.9369 124ZM64.8369 113.56L63.3969 119.34H66.3569L64.9169 113.56H64.8369ZM78.0297 122.22V123.6C78.0297 123.747 77.9964 123.853 77.9297 123.92C77.8764 123.973 77.7697 124 77.6097 124H74.6297C73.5764 124 72.763 123.72 72.1897 123.16C71.6164 122.6 71.3297 121.793 71.3297 120.74V117.06C71.3297 116.007 71.6164 115.2 72.1897 114.64C72.763 114.08 73.5764 113.8 74.6297 113.8H77.6097C77.8897 113.8 78.0297 113.94 78.0297 114.22V115.6C78.0297 115.747 77.9964 115.853 77.9297 115.92C77.8764 115.973 77.7697 116 77.6097 116H75.0297C74.6164 116 74.3164 116.093 74.1297 116.28C73.9564 116.453 73.8697 116.753 73.8697 117.18V120.62C73.8697 121.047 73.9564 121.353 74.1297 121.54C74.3164 121.713 74.6164 121.8 75.0297 121.8H77.6097C77.8897 121.8 78.0297 121.94 78.0297 122.22ZM86.2523 122.22V123.6C86.2523 123.747 86.219 123.853 86.1523 123.92C86.099 123.973 85.9923 124 85.8323 124H82.8523C81.799 124 80.9857 123.72 80.4123 123.16C79.839 122.6 79.5523 121.793 79.5523 120.74V117.06C79.5523 116.007 79.839 115.2 80.4123 114.64C80.9857 114.08 81.799 113.8 82.8523 113.8H85.8323C86.1123 113.8 86.2523 113.94 86.2523 114.22V115.6C86.2523 115.747 86.219 115.853 86.1523 115.92C86.099 115.973 85.9923 116 85.8323 116H83.2523C82.839 116 82.539 116.093 82.3523 116.28C82.179 116.453 82.0923 116.753 82.0923 117.18V120.62C82.0923 121.047 82.179 121.353 82.3523 121.54C82.539 121.713 82.839 121.8 83.2523 121.8H85.8323C86.1123 121.8 86.2523 121.94 86.2523 122.22ZM92.855 124H91.075C90.0217 124 89.2083 123.72 88.635 123.16C88.0617 122.6 87.775 121.793 87.775 120.74V117.06C87.775 116.007 88.0617 115.2 88.635 114.64C89.2083 114.08 90.0217 113.8 91.075 113.8H92.855C93.895 113.8 94.7017 114.087 95.275 114.66C95.8617 115.22 96.155 116.02 96.155 117.06V120.74C96.155 121.78 95.8617 122.587 95.275 123.16C94.7017 123.72 93.895 124 92.855 124ZM91.455 121.82H92.475C92.9017 121.82 93.2017 121.733 93.375 121.56C93.5617 121.387 93.655 121.087 93.655 120.66V117.14C93.655 116.713 93.5617 116.413 93.375 116.24C93.2017 116.067 92.9017 115.98 92.475 115.98H91.455C91.0283 115.98 90.7283 116.067 90.555 116.24C90.3817 116.413 90.295 116.713 90.295 117.14V120.66C90.295 121.087 90.3817 121.387 90.555 121.56C90.7283 121.733 91.0283 121.82 91.455 121.82ZM101.831 124H101.171C100.144 124 99.3641 123.72 98.8308 123.16C98.3108 122.6 98.0508 121.793 98.0508 120.74V114.22C98.0508 113.94 98.1908 113.8 98.4708 113.8H100.171C100.451 113.8 100.591 113.94 100.591 114.22V120.62C100.591 121.047 100.677 121.353 100.851 121.54C101.037 121.713 101.337 121.8 101.751 121.8H102.491C103.411 121.8 103.871 121.293 103.871 120.28V114.22C103.871 113.94 104.011 113.8 104.291 113.8H105.971C106.264 113.8 106.411 113.94 106.411 114.22V123.58C106.411 123.86 106.264 124 105.971 124H104.291C104.011 124 103.871 123.86 103.871 123.58V122.92H103.791C103.644 123.28 103.384 123.553 103.011 123.74C102.637 123.913 102.244 124 101.831 124ZM110.74 124H109.04C108.76 124 108.62 123.86 108.62 123.58V114.22C108.62 113.94 108.76 113.8 109.04 113.8H110.74C111.02 113.8 111.16 113.94 111.16 114.22V114.88H111.24C111.533 114.16 112.186 113.8 113.2 113.8H113.84C115.933 113.8 116.98 114.887 116.98 117.06V123.58C116.98 123.86 116.833 124 116.54 124H114.86C114.58 124 114.44 123.86 114.44 123.58V117.18C114.44 116.753 114.346 116.453 114.16 116.28C113.986 116.093 113.686 116 113.26 116H112.54C111.62 116 111.16 116.507 111.16 117.52V123.58C111.16 123.86 111.02 124 110.74 124ZM119.308 116H118.508C118.348 116 118.235 115.973 118.168 115.92C118.115 115.867 118.088 115.76 118.088 115.6V114.22C118.088 113.94 118.228 113.8 118.508 113.8H119.308C119.455 113.8 119.528 113.727 119.528 113.58V111.68C119.528 111.4 119.675 111.26 119.968 111.26H121.648C121.928 111.26 122.068 111.4 122.068 111.68V113.58C122.068 113.727 122.148 113.8 122.308 113.8H123.868C124.148 113.8 124.288 113.94 124.288 114.22V115.6C124.288 115.747 124.255 115.853 124.188 115.92C124.135 115.973 124.028 116 123.868 116H122.308C122.148 116 122.068 116.073 122.068 116.22V120.64C122.068 121.053 122.162 121.353 122.348 121.54C122.535 121.713 122.842 121.8 123.268 121.8H124.068C124.348 121.8 124.488 121.94 124.488 122.22V123.6C124.488 123.747 124.455 123.853 124.388 123.92C124.335 123.973 124.228 124 124.068 124H122.848C121.795 124 120.975 123.72 120.388 123.16C119.815 122.6 119.528 121.8 119.528 120.76V116.22C119.528 116.073 119.455 116 119.308 116Z" fill="#4E4B63"/>
<path d="M206.98 120.72V120.32C206.98 120.04 207.12 119.9 207.4 119.9H209.1C209.38 119.9 209.52 120.04 209.52 120.32V120.48C209.52 120.987 209.62 121.333 209.82 121.52C210.02 121.707 210.387 121.8 210.92 121.8H211.86C212.38 121.8 212.74 121.7 212.94 121.5C213.153 121.3 213.26 120.927 213.26 120.38V120.14C213.26 119.753 213.1 119.46 212.78 119.26C212.473 119.047 212.087 118.92 211.62 118.88C211.153 118.84 210.647 118.767 210.1 118.66C209.567 118.54 209.067 118.393 208.6 118.22C208.133 118.033 207.74 117.68 207.42 117.16C207.113 116.627 206.96 115.947 206.96 115.12V114.42C206.96 113.38 207.253 112.573 207.84 112C208.427 111.427 209.24 111.14 210.28 111.14H212.28C213.333 111.14 214.153 111.427 214.74 112C215.327 112.573 215.62 113.38 215.62 114.42V114.8C215.62 115.08 215.48 115.22 215.2 115.22H213.5C213.22 115.22 213.08 115.08 213.08 114.8V114.68C213.08 114.16 212.98 113.807 212.78 113.62C212.58 113.433 212.213 113.34 211.68 113.34H210.9C210.353 113.34 209.98 113.447 209.78 113.66C209.593 113.86 209.5 114.26 209.5 114.86V115.24C209.5 115.867 210.047 116.227 211.14 116.32C212.273 116.413 213.28 116.64 214.16 117C214.627 117.2 215.013 117.56 215.32 118.08C215.64 118.587 215.8 119.24 215.8 120.04V120.72C215.8 121.76 215.507 122.567 214.92 123.14C214.333 123.713 213.52 124 212.48 124H210.3C209.26 124 208.447 123.713 207.86 123.14C207.273 122.567 206.98 121.76 206.98 120.72ZM225.401 124H220.981C219.928 124 219.115 123.72 218.541 123.16C217.968 122.6 217.681 121.793 217.681 120.74V117.06C217.681 116.007 217.968 115.2 218.541 114.64C219.115 114.08 219.928 113.8 220.981 113.8H222.561C223.615 113.8 224.428 114.08 225.001 114.64C225.575 115.2 225.861 116.007 225.861 117.06V119.6C225.861 119.88 225.721 120.02 225.441 120.02H220.421C220.261 120.02 220.181 120.093 220.181 120.24V120.68C220.181 121.093 220.268 121.393 220.441 121.58C220.628 121.753 220.935 121.84 221.361 121.84H225.401C225.681 121.84 225.821 121.987 225.821 122.28V123.6C225.821 123.747 225.788 123.853 225.721 123.92C225.668 123.973 225.561 124 225.401 124ZM220.421 118.32H223.141C223.288 118.32 223.361 118.247 223.361 118.1V117.14C223.361 116.713 223.275 116.413 223.101 116.24C222.928 116.067 222.628 115.98 222.201 115.98H221.361C220.935 115.98 220.635 116.067 220.461 116.24C220.288 116.413 220.201 116.713 220.201 117.14V118.1C220.201 118.247 220.275 118.32 220.421 118.32ZM229.984 124H228.284C228.004 124 227.864 123.86 227.864 123.58V110.36C227.864 110.08 228.004 109.94 228.284 109.94H229.984C230.264 109.94 230.404 110.08 230.404 110.36V123.58C230.404 123.86 230.264 124 229.984 124ZM240.225 124H235.805C234.752 124 233.939 123.72 233.365 123.16C232.792 122.6 232.505 121.793 232.505 120.74V117.06C232.505 116.007 232.792 115.2 233.365 114.64C233.939 114.08 234.752 113.8 235.805 113.8H237.385C238.439 113.8 239.252 114.08 239.825 114.64C240.399 115.2 240.685 116.007 240.685 117.06V119.6C240.685 119.88 240.545 120.02 240.265 120.02H235.245C235.085 120.02 235.005 120.093 235.005 120.24V120.68C235.005 121.093 235.092 121.393 235.265 121.58C235.452 121.753 235.759 121.84 236.185 121.84H240.225C240.505 121.84 240.645 121.987 240.645 122.28V123.6C240.645 123.747 240.612 123.853 240.545 123.92C240.492 123.973 240.385 124 240.225 124ZM235.245 118.32H237.965C238.112 118.32 238.185 118.247 238.185 118.1V117.14C238.185 116.713 238.099 116.413 237.925 116.24C237.752 116.067 237.452 115.98 237.025 115.98H236.185C235.759 115.98 235.459 116.067 235.285 116.24C235.112 116.413 235.025 116.713 235.025 117.14V118.1C235.025 118.247 235.099 118.32 235.245 118.32ZM249.088 122.22V123.6C249.088 123.747 249.055 123.853 248.988 123.92C248.935 123.973 248.828 124 248.668 124H245.688C244.635 124 243.822 123.72 243.248 123.16C242.675 122.6 242.388 121.793 242.388 120.74V117.06C242.388 116.007 242.675 115.2 243.248 114.64C243.822 114.08 244.635 113.8 245.688 113.8H248.668C248.948 113.8 249.088 113.94 249.088 114.22V115.6C249.088 115.747 249.055 115.853 248.988 115.92C248.935 115.973 248.828 116 248.668 116H246.088C245.675 116 245.375 116.093 245.188 116.28C245.015 116.453 244.928 116.753 244.928 117.18V120.62C244.928 121.047 245.015 121.353 245.188 121.54C245.375 121.713 245.675 121.8 246.088 121.8H248.668C248.948 121.8 249.088 121.94 249.088 122.22ZM251.031 116H250.231C250.071 116 249.958 115.973 249.891 115.92C249.838 115.867 249.811 115.76 249.811 115.6V114.22C249.811 113.94 249.951 113.8 250.231 113.8H251.031C251.178 113.8 251.251 113.727 251.251 113.58V111.68C251.251 111.4 251.398 111.26 251.691 111.26H253.371C253.651 111.26 253.791 111.4 253.791 111.68V113.58C253.791 113.727 253.871 113.8 254.031 113.8H255.591C255.871 113.8 256.011 113.94 256.011 114.22V115.6C256.011 115.747 255.978 115.853 255.911 115.92C255.858 115.973 255.751 116 255.591 116H254.031C253.871 116 253.791 116.073 253.791 116.22V120.64C253.791 121.053 253.884 121.353 254.071 121.54C254.258 121.713 254.564 121.8 254.991 121.8H255.791C256.071 121.8 256.211 121.94 256.211 122.22V123.6C256.211 123.747 256.178 123.853 256.111 123.92C256.058 123.973 255.951 124 255.791 124H254.571C253.518 124 252.698 123.72 252.111 123.16C251.538 122.6 251.251 121.8 251.251 120.76V116.22C251.251 116.073 251.178 116 251.031 116ZM263.916 127.38H262.636C262.37 127.38 262.236 127.233 262.236 126.94V125.6C262.236 125.307 262.37 125.16 262.636 125.16H263.056C263.896 125.16 264.463 125.04 264.756 124.8C265.063 124.573 265.296 124.127 265.456 123.46H264.396C264.143 123.46 263.976 123.32 263.896 123.04L261.556 114.22C261.476 113.94 261.576 113.8 261.856 113.8H263.636C263.903 113.8 264.07 113.94 264.136 114.22L265.856 121.6H265.936L267.636 114.22C267.69 113.94 267.856 113.8 268.136 113.8H269.816C270.15 113.8 270.283 113.947 270.216 114.24L267.776 124C267.483 125.107 267.03 125.947 266.416 126.52C265.803 127.093 264.97 127.38 263.916 127.38ZM276.55 124H274.77C273.717 124 272.904 123.72 272.33 123.16C271.757 122.6 271.47 121.793 271.47 120.74V117.06C271.47 116.007 271.757 115.2 272.33 114.64C272.904 114.08 273.717 113.8 274.77 113.8H276.55C277.59 113.8 278.397 114.087 278.97 114.66C279.557 115.22 279.85 116.02 279.85 117.06V120.74C279.85 121.78 279.557 122.587 278.97 123.16C278.397 123.72 277.59 124 276.55 124ZM275.15 121.82H276.17C276.597 121.82 276.897 121.733 277.07 121.56C277.257 121.387 277.35 121.087 277.35 120.66V117.14C277.35 116.713 277.257 116.413 277.07 116.24C276.897 116.067 276.597 115.98 276.17 115.98H275.15C274.724 115.98 274.424 116.067 274.25 116.24C274.077 116.413 273.99 116.713 273.99 117.14V120.66C273.99 121.087 274.077 121.387 274.25 121.56C274.424 121.733 274.724 121.82 275.15 121.82ZM285.526 124H284.866C283.839 124 283.059 123.72 282.526 123.16C282.006 122.6 281.746 121.793 281.746 120.74V114.22C281.746 113.94 281.886 113.8 282.166 113.8H283.866C284.146 113.8 284.286 113.94 284.286 114.22V120.62C284.286 121.047 284.373 121.353 284.546 121.54C284.733 121.713 285.033 121.8 285.446 121.8H286.186C287.106 121.8 287.566 121.293 287.566 120.28V114.22C287.566 113.94 287.706 113.8 287.986 113.8H289.666C289.959 113.8 290.106 113.94 290.106 114.22V123.58C290.106 123.86 289.959 124 289.666 124H287.986C287.706 124 287.566 123.86 287.566 123.58V122.92H287.486C287.339 123.28 287.079 123.553 286.706 123.74C286.333 123.913 285.939 124 285.526 124ZM294.435 124H292.735C292.455 124 292.315 123.86 292.315 123.58V114.22C292.315 113.94 292.455 113.8 292.735 113.8H294.435C294.715 113.8 294.855 113.94 294.855 114.22V114.9H294.935C295.082 114.54 295.342 114.267 295.715 114.08C296.088 113.893 296.482 113.8 296.895 113.8H297.615C297.882 113.8 298.015 113.94 298.015 114.22V115.6C298.015 115.76 297.982 115.873 297.915 115.94C297.862 115.993 297.762 116.013 297.615 116H296.235C295.315 116 294.855 116.52 294.855 117.56V123.58C294.855 123.86 294.715 124 294.435 124ZM305.802 126.72H304.102C303.822 126.72 303.682 126.587 303.682 126.32V114.22C303.682 113.94 303.822 113.8 304.102 113.8H305.802C306.082 113.8 306.222 113.94 306.222 114.22V114.88H306.302C306.449 114.52 306.709 114.253 307.082 114.08C307.455 113.893 307.849 113.8 308.262 113.8H309.082C310.109 113.8 310.882 114.08 311.402 114.64C311.935 115.2 312.202 116.007 312.202 117.06V120.74C312.202 121.793 311.935 122.6 311.402 123.16C310.882 123.72 310.109 124 309.082 124H308.262C307.849 124 307.455 123.913 307.082 123.74C306.709 123.553 306.449 123.28 306.302 122.92H306.222V126.32C306.222 126.587 306.082 126.72 305.802 126.72ZM307.602 121.8H308.482C308.909 121.8 309.209 121.713 309.382 121.54C309.569 121.353 309.662 121.047 309.662 120.62V117.18C309.662 116.753 309.569 116.453 309.382 116.28C309.209 116.093 308.909 116 308.482 116H307.602C306.682 116 306.222 116.507 306.222 117.52V120.28C306.222 121.293 306.682 121.8 307.602 121.8ZM316.429 124H314.729C314.449 124 314.309 123.86 314.309 123.58V110.36C314.309 110.08 314.449 109.94 314.729 109.94H316.429C316.709 109.94 316.849 110.08 316.849 110.36V123.58C316.849 123.86 316.709 124 316.429 124ZM322.731 124H322.251C321.197 124 320.384 123.72 319.811 123.16C319.237 122.6 318.951 121.793 318.951 120.74V117.06C318.951 116.007 319.237 115.2 319.811 114.64C320.384 114.08 321.197 113.8 322.251 113.8H326.871C327.164 113.8 327.311 113.94 327.311 114.22V123.58C327.311 123.86 327.164 124 326.871 124H325.191C324.911 124 324.771 123.86 324.771 123.58V122.92H324.691C324.544 123.28 324.284 123.553 323.911 123.74C323.537 123.913 323.144 124 322.731 124ZM324.771 120.28V116.22C324.771 116.073 324.691 116 324.531 116H322.651C322.224 116 321.924 116.093 321.751 116.28C321.577 116.453 321.491 116.753 321.491 117.18V120.62C321.491 121.047 321.577 121.353 321.751 121.54C321.924 121.713 322.224 121.8 322.651 121.8H323.391C324.311 121.8 324.771 121.293 324.771 120.28ZM331.622 124H329.922C329.642 124 329.502 123.86 329.502 123.58V114.22C329.502 113.94 329.642 113.8 329.922 113.8H331.622C331.902 113.8 332.042 113.94 332.042 114.22V114.88H332.122C332.416 114.16 333.069 113.8 334.082 113.8H334.722C336.816 113.8 337.862 114.887 337.862 117.06V123.58C337.862 123.86 337.716 124 337.422 124H335.742C335.462 124 335.322 123.86 335.322 123.58V117.18C335.322 116.753 335.229 116.453 335.042 116.28C334.869 116.093 334.569 116 334.142 116H333.422C332.502 116 332.042 116.507 332.042 117.52V123.58C332.042 123.86 331.902 124 331.622 124Z" fill="#4E4B63"/>
<path d="M420.26 124H413.72C413.44 124 413.3 123.86 413.3 123.58V111.56C413.3 111.28 413.44 111.14 413.72 111.14H420.26C420.527 111.14 420.66 111.28 420.66 111.56V112.92C420.66 113.2 420.527 113.34 420.26 113.34H416.08C415.92 113.34 415.84 113.413 415.84 113.56V116.16C415.84 116.307 415.92 116.38 416.08 116.38H419.5C419.78 116.38 419.92 116.52 419.92 116.8V118.16C419.92 118.44 419.78 118.58 419.5 118.58H416.08C415.92 118.58 415.84 118.653 415.84 118.8V121.58C415.84 121.727 415.92 121.8 416.08 121.8H420.26C420.527 121.8 420.66 121.94 420.66 122.22V123.58C420.66 123.86 420.527 124 420.26 124ZM424.79 124H423.09C422.81 124 422.67 123.86 422.67 123.58V114.22C422.67 113.94 422.81 113.8 423.09 113.8H424.79C425.07 113.8 425.21 113.94 425.21 114.22V114.88H425.29C425.584 114.16 426.237 113.8 427.25 113.8H427.89C429.984 113.8 431.03 114.887 431.03 117.06V123.58C431.03 123.86 430.884 124 430.59 124H428.91C428.63 124 428.49 123.86 428.49 123.58V117.18C428.49 116.753 428.397 116.453 428.21 116.28C428.037 116.093 427.737 116 427.31 116H426.59C425.67 116 425.21 116.507 425.21 117.52V123.58C425.21 123.86 425.07 124 424.79 124ZM433.239 112.08V110.34C433.239 110.073 433.372 109.94 433.639 109.94H435.379C435.646 109.94 435.779 110.067 435.779 110.32V112.08C435.779 112.347 435.646 112.48 435.379 112.48H433.639C433.372 112.48 433.239 112.347 433.239 112.08ZM432.459 127.32H431.119C430.839 127.32 430.699 127.18 430.699 126.9V125.54C430.699 125.26 430.839 125.12 431.119 125.12H431.679C432.279 125.12 432.686 125.013 432.899 124.8C433.126 124.587 433.239 124.18 433.239 123.58V114.22C433.239 113.94 433.379 113.8 433.659 113.8H435.359C435.639 113.8 435.779 113.94 435.779 114.22V124.04C435.779 125.08 435.486 125.887 434.899 126.46C434.312 127.033 433.499 127.32 432.459 127.32ZM442.96 124H441.18C440.127 124 439.314 123.72 438.74 123.16C438.167 122.6 437.88 121.793 437.88 120.74V117.06C437.88 116.007 438.167 115.2 438.74 114.64C439.314 114.08 440.127 113.8 441.18 113.8H442.96C444 113.8 444.807 114.087 445.38 114.66C445.967 115.22 446.26 116.02 446.26 117.06V120.74C446.26 121.78 445.967 122.587 445.38 123.16C444.807 123.72 444 124 442.96 124ZM441.56 121.82H442.58C443.007 121.82 443.307 121.733 443.48 121.56C443.667 121.387 443.76 121.087 443.76 120.66V117.14C443.76 116.713 443.667 116.413 443.48 116.24C443.307 116.067 443.007 115.98 442.58 115.98H441.56C441.134 115.98 440.834 116.067 440.66 116.24C440.487 116.413 440.4 116.713 440.4 117.14V120.66C440.4 121.087 440.487 121.387 440.66 121.56C440.834 121.733 441.134 121.82 441.56 121.82ZM449.916 127.38H448.636C448.37 127.38 448.236 127.233 448.236 126.94V125.6C448.236 125.307 448.37 125.16 448.636 125.16H449.056C449.896 125.16 450.463 125.04 450.756 124.8C451.063 124.573 451.296 124.127 451.456 123.46H450.396C450.143 123.46 449.976 123.32 449.896 123.04L447.556 114.22C447.476 113.94 447.576 113.8 447.856 113.8H449.636C449.903 113.8 450.07 113.94 450.136 114.22L451.856 121.6H451.936L453.636 114.22C453.69 113.94 453.856 113.8 454.136 113.8H455.816C456.15 113.8 456.283 113.947 456.216 114.24L453.776 124C453.483 125.107 453.03 125.947 452.416 126.52C451.803 127.093 450.97 127.38 449.916 127.38ZM469.585 124H465.165C464.112 124 463.298 123.72 462.725 123.16C462.152 122.6 461.865 121.793 461.865 120.74V117.06C461.865 116.007 462.152 115.2 462.725 114.64C463.298 114.08 464.112 113.8 465.165 113.8H466.745C467.798 113.8 468.612 114.08 469.185 114.64C469.758 115.2 470.045 116.007 470.045 117.06V119.6C470.045 119.88 469.905 120.02 469.625 120.02H464.605C464.445 120.02 464.365 120.093 464.365 120.24V120.68C464.365 121.093 464.452 121.393 464.625 121.58C464.812 121.753 465.118 121.84 465.545 121.84H469.585C469.865 121.84 470.005 121.987 470.005 122.28V123.6C470.005 123.747 469.972 123.853 469.905 123.92C469.852 123.973 469.745 124 469.585 124ZM464.605 118.32H467.325C467.472 118.32 467.545 118.247 467.545 118.1V117.14C467.545 116.713 467.458 116.413 467.285 116.24C467.112 116.067 466.812 115.98 466.385 115.98H465.545C465.118 115.98 464.818 116.067 464.645 116.24C464.472 116.413 464.385 116.713 464.385 117.14V118.1C464.385 118.247 464.458 118.32 464.605 118.32ZM471.508 113.8H473.268C473.534 113.8 473.694 113.94 473.748 114.22L475.468 121.74H475.608L477.288 114.22C477.341 113.94 477.508 113.8 477.788 113.8H479.548C479.828 113.8 479.928 113.94 479.848 114.22L477.328 123.56C477.274 123.853 477.094 124 476.788 124H474.248C473.968 124 473.788 123.853 473.708 123.56L471.208 114.22C471.128 113.94 471.228 113.8 471.508 113.8ZM488.823 124H484.403C483.35 124 482.536 123.72 481.963 123.16C481.39 122.6 481.103 121.793 481.103 120.74V117.06C481.103 116.007 481.39 115.2 481.963 114.64C482.536 114.08 483.35 113.8 484.403 113.8H485.983C487.036 113.8 487.85 114.08 488.423 114.64C488.996 115.2 489.283 116.007 489.283 117.06V119.6C489.283 119.88 489.143 120.02 488.863 120.02H483.843C483.683 120.02 483.603 120.093 483.603 120.24V120.68C483.603 121.093 483.69 121.393 483.863 121.58C484.05 121.753 484.356 121.84 484.783 121.84H488.823C489.103 121.84 489.243 121.987 489.243 122.28V123.6C489.243 123.747 489.21 123.853 489.143 123.92C489.09 123.973 488.983 124 488.823 124ZM483.843 118.32H486.563C486.71 118.32 486.783 118.247 486.783 118.1V117.14C486.783 116.713 486.696 116.413 486.523 116.24C486.35 116.067 486.05 115.98 485.623 115.98H484.783C484.356 115.98 484.056 116.067 483.883 116.24C483.71 116.413 483.623 116.713 483.623 117.14V118.1C483.623 118.247 483.696 118.32 483.843 118.32ZM493.306 124H491.606C491.326 124 491.186 123.86 491.186 123.58V114.22C491.186 113.94 491.326 113.8 491.606 113.8H493.306C493.586 113.8 493.726 113.94 493.726 114.22V114.9H493.806C493.953 114.54 494.213 114.267 494.586 114.08C494.959 113.893 495.353 113.8 495.766 113.8H496.486C496.753 113.8 496.886 113.94 496.886 114.22V115.6C496.886 115.76 496.853 115.873 496.786 115.94C496.733 115.993 496.633 116.013 496.486 116H495.106C494.186 116 493.726 116.52 493.726 117.56V123.58C493.726 123.86 493.586 124 493.306 124ZM499.819 127.38H498.539C498.272 127.38 498.139 127.233 498.139 126.94V125.6C498.139 125.307 498.272 125.16 498.539 125.16H498.959C499.799 125.16 500.365 125.04 500.659 124.8C500.965 124.573 501.199 124.127 501.359 123.46H500.299C500.045 123.46 499.879 123.32 499.799 123.04L497.459 114.22C497.379 113.94 497.479 113.8 497.759 113.8H499.539C499.805 113.8 499.972 113.94 500.039 114.22L501.759 121.6H501.839L503.539 114.22C503.592 113.94 503.759 113.8 504.039 113.8H505.719C506.052 113.8 506.185 113.947 506.119 114.24L503.679 124C503.385 125.107 502.932 125.947 502.319 126.52C501.705 127.093 500.872 127.38 499.819 127.38ZM507.793 116H506.993C506.833 116 506.719 115.973 506.653 115.92C506.599 115.867 506.573 115.76 506.573 115.6V114.22C506.573 113.94 506.713 113.8 506.993 113.8H507.793C507.939 113.8 508.013 113.727 508.013 113.58V111.68C508.013 111.4 508.159 111.26 508.453 111.26H510.133C510.413 111.26 510.553 111.4 510.553 111.68V113.58C510.553 113.727 510.633 113.8 510.793 113.8H512.353C512.633 113.8 512.773 113.94 512.773 114.22V115.6C512.773 115.747 512.739 115.853 512.673 115.92C512.619 115.973 512.513 116 512.353 116H510.793C510.633 116 510.553 116.073 510.553 116.22V120.64C510.553 121.053 510.646 121.353 510.833 121.54C511.019 121.713 511.326 121.8 511.753 121.8H512.553C512.833 121.8 512.973 121.94 512.973 122.22V123.6C512.973 123.747 512.939 123.853 512.873 123.92C512.819 123.973 512.713 124 512.553 124H511.333C510.279 124 509.459 123.72 508.873 123.16C508.299 122.6 508.013 121.8 508.013 120.76V116.22C508.013 116.073 507.939 116 507.793 116ZM516.743 124H515.043C514.763 124 514.623 123.86 514.623 123.58V110.36C514.623 110.08 514.763 109.94 515.043 109.94H516.743C517.023 109.94 517.163 110.08 517.163 110.36V114.88H517.243C517.537 114.16 518.19 113.8 519.203 113.8H519.843C521.937 113.8 522.983 114.887 522.983 117.06V123.58C522.983 123.86 522.837 124 522.543 124H520.863C520.583 124 520.443 123.86 520.443 123.58V117.18C520.443 116.753 520.35 116.453 520.163 116.28C519.99 116.093 519.69 116 519.263 116H518.543C517.623 116 517.163 116.507 517.163 117.52V123.58C517.163 123.86 517.023 124 516.743 124ZM525.192 112.08V110.34C525.192 110.073 525.326 109.94 525.592 109.94H527.332C527.599 109.94 527.732 110.067 527.732 110.32V112.08C527.732 112.347 527.599 112.48 527.332 112.48H525.592C525.326 112.48 525.192 112.347 525.192 112.08ZM525.192 123.58V114.22C525.192 113.94 525.326 113.8 525.592 113.8H527.312C527.592 113.8 527.732 113.94 527.732 114.22V123.58C527.732 123.753 527.699 123.867 527.632 123.92C527.579 123.973 527.479 124 527.332 124H525.612C525.332 124 525.192 123.86 525.192 123.58ZM532.154 124H530.454C530.174 124 530.034 123.86 530.034 123.58V114.22C530.034 113.94 530.174 113.8 530.454 113.8H532.154C532.434 113.8 532.574 113.94 532.574 114.22V114.88H532.654C532.947 114.16 533.6 113.8 534.614 113.8H535.254C537.347 113.8 538.394 114.887 538.394 117.06V123.58C538.394 123.86 538.247 124 537.954 124H536.274C535.994 124 535.854 123.86 535.854 123.58V117.18C535.854 116.753 535.76 116.453 535.574 116.28C535.4 116.093 535.1 116 534.674 116H533.954C533.034 116 532.574 116.507 532.574 117.52V123.58C532.574 123.86 532.434 124 532.154 124ZM544.102 123.54H543.442C542.416 123.54 541.636 123.26 541.102 122.7C540.582 122.14 540.322 121.333 540.322 120.28V117.06C540.322 116.007 540.609 115.2 541.182 114.64C541.756 114.08 542.569 113.8 543.622 113.8H548.242C548.536 113.8 548.682 113.94 548.682 114.22V124.08C548.682 125.12 548.389 125.92 547.802 126.48C547.229 127.04 546.422 127.32 545.382 127.32H541.542C541.382 127.32 541.269 127.287 541.202 127.22C541.149 127.167 541.122 127.067 541.122 126.92V125.54C541.122 125.26 541.262 125.12 541.542 125.12H544.962C545.389 125.12 545.689 125.027 545.862 124.84C546.049 124.667 546.142 124.373 546.142 123.96V122.44H546.062C545.916 122.8 545.656 123.073 545.282 123.26C544.909 123.447 544.516 123.54 544.102 123.54ZM546.142 119.82V116.22C546.142 116.073 546.062 116 545.902 116H544.022C543.596 116 543.296 116.093 543.122 116.28C542.949 116.453 542.862 116.753 542.862 117.18V120.16C542.862 120.587 542.949 120.887 543.122 121.06C543.296 121.233 543.596 121.32 544.022 121.32H544.762C545.682 121.32 546.142 120.82 546.142 119.82Z" fill="#4E4B63"/>
<circle cx="63" cy="50" r="49" fill="white" stroke="#7868E6" stroke-width="2"/>
<circle cx="272" cy="50" r="49" fill="white" stroke="#7868E6" stroke-width="2"/>
<circle cx="481" cy="50" r="49" fill="white" stroke="#F48B29" stroke-width="2"/>
<path d="M57.805 43.76V40.89C57.805 40.4933 57.98 40.19 58.33 39.98L61.515 37.985C62.0517 37.6583 62.5067 37.495 62.88 37.495H65.68C66.17 37.495 66.415 37.74 66.415 38.23V59.265C66.415 59.545 66.3567 59.7433 66.24 59.86C66.1467 59.9533 65.9717 60 65.715 60H62.705C62.215 60 61.97 59.755 61.97 59.265V42.22L58.54 44.18C58.05 44.39 57.805 44.25 57.805 43.76Z" fill="#7868E6"/>
<path d="M264.645 59.265V55.94C264.645 54.61 265.217 53.4783 266.36 52.545L272.8 47.085C273.85 46.2217 274.375 45.2883 274.375 44.285V43.235C274.375 42.5117 274.2 41.9983 273.85 41.695C273.523 41.3683 272.975 41.205 272.205 41.205H270.98C270.233 41.205 269.708 41.3683 269.405 41.695C269.102 41.9983 268.95 42.5117 268.95 43.235V44.355C268.95 44.8683 268.705 45.125 268.215 45.125H265.24C264.75 45.125 264.505 44.8683 264.505 44.355V43.165C264.505 41.345 265.007 39.945 266.01 38.965C267.013 37.985 268.437 37.495 270.28 37.495H272.94C274.783 37.495 276.207 37.985 277.21 38.965C278.213 39.945 278.715 41.345 278.715 43.165V44.565C278.715 46.385 278.015 47.89 276.615 49.08L270.035 54.68C269.755 54.9367 269.615 55.2167 269.615 55.52V56.08H277.98C278.47 56.08 278.715 56.325 278.715 56.815V59.265C278.715 59.755 278.47 60 277.98 60H265.38C264.89 60 264.645 59.755 264.645 59.265Z" fill="#7868E6"/>
<path d="M479.665 46.91H481.45C482.22 46.91 482.768 46.7583 483.095 46.455C483.445 46.1283 483.62 45.6033 483.62 44.88V43.235C483.62 42.5117 483.445 41.9983 483.095 41.695C482.768 41.3683 482.22 41.205 481.45 41.205H479.77C479.023 41.205 478.498 41.3683 478.195 41.695C477.892 41.9983 477.74 42.5117 477.74 43.235V44.11C477.74 44.6 477.495 44.845 477.005 44.845H474.03C473.54 44.845 473.295 44.6 473.295 44.11V43.165C473.295 41.345 473.797 39.945 474.8 38.965C475.803 37.985 477.227 37.495 479.07 37.495H482.185C484.028 37.495 485.452 37.985 486.455 38.965C487.458 39.945 487.96 41.345 487.96 43.165V44.915C487.96 46.875 487.038 48.1467 485.195 48.73C487.038 49.1267 487.96 50.3983 487.96 52.545V54.33C487.96 56.15 487.458 57.55 486.455 58.53C485.452 59.51 484.028 60 482.185 60H479.07C477.227 60 475.803 59.51 474.8 58.53C473.797 57.55 473.295 56.15 473.295 54.33V53.35C473.295 52.8367 473.54 52.58 474.03 52.58H477.005C477.495 52.58 477.74 52.8367 477.74 53.35V54.26C477.74 55.0067 477.892 55.5317 478.195 55.835C478.498 56.1383 479.023 56.29 479.77 56.29H481.45C482.22 56.29 482.768 56.1383 483.095 55.835C483.445 55.5083 483.62 54.9833 483.62 54.26V52.545C483.62 51.8217 483.445 51.3083 483.095 51.005C482.768 50.6783 482.22 50.515 481.45 50.515H479.665C479.175 50.515 478.93 50.27 478.93 49.78V47.68C478.93 47.1667 479.175 46.91 479.665 46.91Z" fill="#F48B29"/>
<path d="M206.707 50.7071C207.098 50.3166 207.098 49.6834 206.707 49.2929L200.343 42.9289C199.953 42.5384 199.319 42.5384 198.929 42.9289C198.538 43.3195 198.538 43.9526 198.929 44.3431L204.586 50L198.929 55.6569C198.538 56.0474 198.538 56.6805 198.929 57.0711C199.319 57.4616 199.953 57.4616 200.343 57.0711L206.707 50.7071ZM128 51L206 51L206 49L128 49L128 51Z" fill="#7868E6"/>
<path d="M416.707 50.7071C417.098 50.3166 417.098 49.6834 416.707 49.2929L410.343 42.9289C409.953 42.5384 409.319 42.5384 408.929 42.9289C408.538 43.3195 408.538 43.9526 408.929 44.3431L414.586 50L408.929 55.6569C408.538 56.0474 408.538 56.6805 408.929 57.0711C409.319 57.4616 409.953 57.4616 410.343 57.0711L416.707 50.7071ZM338 51L416 51L416 49L338 49L338 51Z" fill="#7868E6"/>
<circle cx="63" cy="146" r="15" fill="#7868E6"/>
<circle cx="272" cy="146" r="15" fill="#7868E6"/>
<path d="M272.23 147.915V149.745C272.23 149.915 272.15 150 271.99 150H270.97C270.8 150 270.715 149.91 270.715 149.73V147.915C270.715 147.755 270.8 147.675 270.97 147.675H271.99C272.15 147.675 272.23 147.755 272.23 147.915ZM272.215 145.98V146.43C272.215 146.6 272.125 146.685 271.945 146.685H271.06C270.89 146.685 270.805 146.6 270.805 146.43V145.995C270.805 145.625 270.86 145.335 270.97 145.125C271.08 144.915 271.28 144.69 271.57 144.45L272.305 143.835C272.655 143.555 272.83 143.245 272.83 142.905V142.695C272.83 141.975 272.455 141.615 271.705 141.615H271.3C270.93 141.615 270.66 141.705 270.49 141.885C270.32 142.055 270.235 142.325 270.235 142.695V143.13C270.235 143.31 270.145 143.4 269.965 143.4H269.02C268.85 143.4 268.765 143.31 268.765 143.13V142.665C268.765 141.935 268.97 141.37 269.38 140.97C269.79 140.57 270.36 140.37 271.09 140.37H271.93C272.66 140.37 273.23 140.57 273.64 140.97C274.05 141.37 274.255 141.935 274.255 142.665V142.98C274.255 143.48 274.03 143.93 273.58 144.33L272.68 145.05C272.48 145.22 272.35 145.37 272.29 145.5C272.24 145.62 272.215 145.78 272.215 145.98Z" fill="white"/>
<path d="M63.755 145.57H65.9C66.09 145.57 66.185 145.67 66.185 145.87V146.5C66.185 146.69 66.09 146.785 65.9 146.785H63.755V148.96C63.755 149.16 63.655 149.26 63.455 149.26H62.78C62.59 149.26 62.495 149.16 62.495 148.96V146.785H60.335C60.145 146.785 60.05 146.69 60.05 146.5V145.87C60.05 145.67 60.145 145.57 60.335 145.57H62.495V143.41C62.495 143.21 62.59 143.11 62.78 143.11H63.455C63.655 143.11 63.755 143.21 63.755 143.41V145.57Z" fill="white"/>
<circle cx="481" cy="146" r="15" fill="#F48B29"/>
<path d="M483.354 146.354C483.549 146.158 483.549 145.842 483.354 145.646L480.172 142.464C479.976 142.269 479.66 142.269 479.464 142.464C479.269 142.66 479.269 142.976 479.464 143.172L482.293 146L479.464 148.828C479.269 149.024 479.269 149.34 479.464 149.536C479.66 149.731 479.976 149.731 480.172 149.536L483.354 146.354ZM482 146.5L483 146.5L483 145.5L482 145.5L482 146.5Z" fill="white"/>
</svg>
