<?xml version="1.0" standalone="no"?>
<svg xmlns:xlink="http://www.w3.org/1999/xlink" id="wave" style="transform:rotate(0deg); transition: 0.3s" viewBox="0 0 1440 490" version="1.1" xmlns="http://www.w3.org/2000/svg"><defs><linearGradient id="sw-gradient-0" x1="0" x2="0" y1="1" y2="0"><stop stop-color="rgba(120, 104, 230, 1)" offset="0%"/><stop stop-color="rgba(120, 104, 230, 1)" offset="100%"/></linearGradient></defs><path style="transform:translate(0, 0px); opacity:1" fill="url(#sw-gradient-0)" d="M0,294L26.7,245C53.3,196,107,98,160,106.2C213.3,114,267,229,320,253.2C373.3,278,427,212,480,171.5C533.3,131,587,114,640,106.2C693.3,98,747,98,800,138.8C853.3,180,907,261,960,310.3C1013.3,359,1067,376,1120,359.3C1173.3,343,1227,294,1280,245C1333.3,196,1387,147,1440,171.5C1493.3,196,1547,294,1600,277.7C1653.3,261,1707,131,1760,98C1813.3,65,1867,131,1920,171.5C1973.3,212,2027,229,2080,228.7C2133.3,229,2187,212,2240,220.5C2293.3,229,2347,261,2400,253.2C2453.3,245,2507,196,2560,155.2C2613.3,114,2667,82,2720,114.3C2773.3,147,2827,245,2880,277.7C2933.3,310,2987,278,3040,285.8C3093.3,294,3147,343,3200,343C3253.3,343,3307,294,3360,253.2C3413.3,212,3467,180,3520,155.2C3573.3,131,3627,114,3680,130.7C3733.3,147,3787,196,3813,220.5L3840,245L3840,490L3813.3,490C3786.7,490,3733,490,3680,490C3626.7,490,3573,490,3520,490C3466.7,490,3413,490,3360,490C3306.7,490,3253,490,3200,490C3146.7,490,3093,490,3040,490C2986.7,490,2933,490,2880,490C2826.7,490,2773,490,2720,490C2666.7,490,2613,490,2560,490C2506.7,490,2453,490,2400,490C2346.7,490,2293,490,2240,490C2186.7,490,2133,490,2080,490C2026.7,490,1973,490,1920,490C1866.7,490,1813,490,1760,490C1706.7,490,1653,490,1600,490C1546.7,490,1493,490,1440,490C1386.7,490,1333,490,1280,490C1226.7,490,1173,490,1120,490C1066.7,490,1013,490,960,490C906.7,490,853,490,800,490C746.7,490,693,490,640,490C586.7,490,533,490,480,490C426.7,490,373,490,320,490C266.7,490,213,490,160,490C106.7,490,53,490,27,490L0,490Z"/></svg>