<?xml version="1.0" standalone="no"?>
<svg xmlns:xlink="http://www.w3.org/1999/xlink" id="wave" style="transform:rotate(0deg); transition: 0.3s" viewBox="0 0 1440 490" version="1.1" xmlns="http://www.w3.org/2000/svg"><defs><linearGradient id="sw-gradient-0" x1="0" x2="0" y1="1" y2="0"><stop stop-color="rgba(120, 104, 230, 1)" offset="0%"/><stop stop-color="rgba(120, 104, 230, 1)" offset="100%"/></linearGradient></defs><path style="transform:translate(0, 0px); opacity:1" fill="url(#sw-gradient-0)" d="M0,49L80,106.2C160,163,320,278,480,302.2C640,327,800,261,960,220.5C1120,180,1280,163,1440,179.7C1600,196,1760,245,1920,269.5C2080,294,2240,294,2400,294C2560,294,2720,294,2880,245C3040,196,3200,98,3360,49C3520,0,3680,0,3840,57.2C4000,114,4160,229,4320,294C4480,359,4640,376,4800,334.8C4960,294,5120,196,5280,155.2C5440,114,5600,131,5760,138.8C5920,147,6080,147,6240,130.7C6400,114,6560,82,6720,57.2C6880,33,7040,16,7200,32.7C7360,49,7520,98,7680,130.7C7840,163,8000,180,8160,204.2C8320,229,8480,261,8640,302.2C8800,343,8960,392,9120,392C9280,392,9440,343,9600,294C9760,245,9920,196,10080,179.7C10240,163,10400,180,10560,196C10720,212,10880,229,11040,245C11200,261,11360,278,11440,285.8L11520,294L11520,490L11440,490C11360,490,11200,490,11040,490C10880,490,10720,490,10560,490C10400,490,10240,490,10080,490C9920,490,9760,490,9600,490C9440,490,9280,490,9120,490C8960,490,8800,490,8640,490C8480,490,8320,490,8160,490C8000,490,7840,490,7680,490C7520,490,7360,490,7200,490C7040,490,6880,490,6720,490C6560,490,6400,490,6240,490C6080,490,5920,490,5760,490C5600,490,5440,490,5280,490C5120,490,4960,490,4800,490C4640,490,4480,490,4320,490C4160,490,4000,490,3840,490C3680,490,3520,490,3360,490C3200,490,3040,490,2880,490C2720,490,2560,490,2400,490C2240,490,2080,490,1920,490C1760,490,1600,490,1440,490C1280,490,1120,490,960,490C800,490,640,490,480,490C320,490,160,490,80,490L0,490Z"/><defs><linearGradient id="sw-gradient-1" x1="0" x2="0" y1="1" y2="0"><stop stop-color="rgba(150.389, 140.409, 218.998, 1)" offset="0%"/><stop stop-color="rgba(120, 104, 230, 1)" offset="100%"/></linearGradient></defs><path style="transform:translate(0, 50px); opacity:0.9" fill="url(#sw-gradient-1)" d="M0,343L80,359.3C160,376,320,408,480,416.5C640,425,800,408,960,343C1120,278,1280,163,1440,147C1600,131,1760,212,1920,253.2C2080,294,2240,294,2400,310.3C2560,327,2720,359,2880,310.3C3040,261,3200,131,3360,89.8C3520,49,3680,98,3840,114.3C4000,131,4160,114,4320,114.3C4480,114,4640,131,4800,130.7C4960,131,5120,114,5280,138.8C5440,163,5600,229,5760,277.7C5920,327,6080,359,6240,318.5C6400,278,6560,163,6720,106.2C6880,49,7040,49,7200,114.3C7360,180,7520,310,7680,367.5C7840,425,8000,408,8160,343C8320,278,8480,163,8640,138.8C8800,114,8960,180,9120,220.5C9280,261,9440,278,9600,294C9760,310,9920,327,10080,310.3C10240,294,10400,245,10560,196C10720,147,10880,98,11040,73.5C11200,49,11360,49,11440,49L11520,49L11520,490L11440,490C11360,490,11200,490,11040,490C10880,490,10720,490,10560,490C10400,490,10240,490,10080,490C9920,490,9760,490,9600,490C9440,490,9280,490,9120,490C8960,490,8800,490,8640,490C8480,490,8320,490,8160,490C8000,490,7840,490,7680,490C7520,490,7360,490,7200,490C7040,490,6880,490,6720,490C6560,490,6400,490,6240,490C6080,490,5920,490,5760,490C5600,490,5440,490,5280,490C5120,490,4960,490,4800,490C4640,490,4480,490,4320,490C4160,490,4000,490,3840,490C3680,490,3520,490,3360,490C3200,490,3040,490,2880,490C2720,490,2560,490,2400,490C2240,490,2080,490,1920,490C1760,490,1600,490,1440,490C1280,490,1120,490,960,490C800,490,640,490,480,490C320,490,160,490,80,490L0,490Z"/></svg>